%TF.GenerationSoftware,KiCad,Pcbnew,7.0.10*%
%TF.CreationDate,2024-11-23T21:13:02-08:00*%
%TF.ProjectId,charging-base rev1,63686172-6769-46e6-972d-626173652072,rev?*%
%TF.SameCoordinates,Original*%
%TF.FileFunction,Copper,L2,Bot*%
%TF.FilePolarity,Positive*%
%FSLAX46Y46*%
G04 Gerber Fmt 4.6, Leading zero omitted, Abs format (unit mm)*
G04 Created by KiCad (PCBNEW 7.0.10) date 2024-11-23 21:13:02*
%MOMM*%
%LPD*%
G01*
G04 APERTURE LIST*
G04 Aperture macros list*
%AMRoundRect*
0 Rectangle with rounded corners*
0 $1 Rounding radius*
0 $2 $3 $4 $5 $6 $7 $8 $9 X,Y pos of 4 corners*
0 Add a 4 corners polygon primitive as box body*
4,1,4,$2,$3,$4,$5,$6,$7,$8,$9,$2,$3,0*
0 Add four circle primitives for the rounded corners*
1,1,$1+$1,$2,$3*
1,1,$1+$1,$4,$5*
1,1,$1+$1,$6,$7*
1,1,$1+$1,$8,$9*
0 Add four rect primitives between the rounded corners*
20,1,$1+$1,$2,$3,$4,$5,0*
20,1,$1+$1,$4,$5,$6,$7,0*
20,1,$1+$1,$6,$7,$8,$9,0*
20,1,$1+$1,$8,$9,$2,$3,0*%
G04 Aperture macros list end*
%TA.AperFunction,ComponentPad*%
%ADD10R,1.700000X1.700000*%
%TD*%
%TA.AperFunction,ComponentPad*%
%ADD11O,1.700000X1.700000*%
%TD*%
%TA.AperFunction,ComponentPad*%
%ADD12R,3.500000X3.500000*%
%TD*%
%TA.AperFunction,ComponentPad*%
%ADD13RoundRect,0.750000X-0.750000X-1.000000X0.750000X-1.000000X0.750000X1.000000X-0.750000X1.000000X0*%
%TD*%
%TA.AperFunction,ComponentPad*%
%ADD14RoundRect,0.875000X-0.875000X-0.875000X0.875000X-0.875000X0.875000X0.875000X-0.875000X0.875000X0*%
%TD*%
%TA.AperFunction,ComponentPad*%
%ADD15R,1.800000X1.800000*%
%TD*%
%TA.AperFunction,ComponentPad*%
%ADD16C,1.800000*%
%TD*%
%TA.AperFunction,ViaPad*%
%ADD17C,0.800000*%
%TD*%
%TA.AperFunction,Conductor*%
%ADD18C,0.254000*%
%TD*%
G04 APERTURE END LIST*
D10*
%TO.P,J2,1,Pin_1*%
%TO.N,Net-(J2-Pin_1)*%
X148710000Y-106000000D03*
D11*
%TO.P,J2,2,Pin_2*%
%TO.N,+VDC*%
X151250000Y-106000000D03*
%TD*%
D12*
%TO.P,J1,1*%
%TO.N,+VDC*%
X117000000Y-100000000D03*
D13*
%TO.P,J1,2*%
%TO.N,GND*%
X111000000Y-100000000D03*
D14*
%TO.P,J1,3*%
X114000000Y-104700000D03*
%TD*%
D15*
%TO.P,D1,1,K*%
%TO.N,Net-(D1-K)*%
X186250000Y-101274999D03*
D16*
%TO.P,D1,2,A*%
%TO.N,Net-(D1-A)*%
X186250000Y-98734999D03*
%TD*%
D17*
%TO.N,+VDC*%
X140917500Y-97000000D03*
X177000000Y-95000000D03*
%TO.N,/output-voltage*%
X130400000Y-99000000D03*
X124417500Y-98750000D03*
%TD*%
D18*
%TO.N,/output-voltage*%
X130150000Y-99250000D02*
X124917500Y-99250000D01*
X124917500Y-99250000D02*
X124417500Y-98750000D01*
X130400000Y-99000000D02*
X130150000Y-99250000D01*
%TD*%
%TA.AperFunction,Conductor*%
%TO.N,+VDC*%
G36*
X179424495Y-85508489D02*
G01*
X179424632Y-85508500D01*
X179433054Y-85508500D01*
X179497545Y-85508500D01*
X179498313Y-85508500D01*
X179501671Y-85508545D01*
X180172932Y-85526729D01*
X180179623Y-85527092D01*
X180847229Y-85581454D01*
X180853884Y-85582177D01*
X181517608Y-85672607D01*
X181524180Y-85673685D01*
X182181999Y-85799910D01*
X182188539Y-85801349D01*
X182838591Y-85963009D01*
X182845029Y-85964797D01*
X183485355Y-86161408D01*
X183491685Y-86163540D01*
X184120441Y-86394533D01*
X184126656Y-86397010D01*
X184741971Y-86661699D01*
X184748045Y-86664509D01*
X185133882Y-86855867D01*
X185348121Y-86962120D01*
X185354022Y-86965248D01*
X185937150Y-87294934D01*
X185942861Y-87298371D01*
X186507257Y-87659126D01*
X186512775Y-87662867D01*
X186842872Y-87899976D01*
X187056805Y-88053644D01*
X187062151Y-88057708D01*
X187584194Y-88477337D01*
X187589313Y-88481684D01*
X188087908Y-88928994D01*
X188092783Y-88933613D01*
X188566385Y-89407215D01*
X188571004Y-89412090D01*
X189018314Y-89910685D01*
X189022661Y-89915804D01*
X189442290Y-90437847D01*
X189446354Y-90443193D01*
X189683137Y-90772836D01*
X189837126Y-90987215D01*
X189840887Y-90992762D01*
X190201622Y-91557129D01*
X190205084Y-91562883D01*
X190534733Y-92145944D01*
X190537879Y-92151877D01*
X190835484Y-92751943D01*
X190838304Y-92758038D01*
X191102984Y-93373330D01*
X191105470Y-93379569D01*
X191336453Y-94008296D01*
X191338597Y-94014660D01*
X191535197Y-94654953D01*
X191536994Y-94661424D01*
X191698648Y-95311450D01*
X191700091Y-95318009D01*
X191826308Y-95975791D01*
X191827395Y-95982418D01*
X191917820Y-96646103D01*
X191918546Y-96652779D01*
X191972906Y-97320368D01*
X191973270Y-97327074D01*
X191991455Y-97998338D01*
X191991500Y-98001696D01*
X191991500Y-101998303D01*
X191991455Y-102001661D01*
X191973270Y-102672925D01*
X191972906Y-102679631D01*
X191918546Y-103347220D01*
X191917820Y-103353896D01*
X191827396Y-104017581D01*
X191826309Y-104024208D01*
X191700091Y-104681990D01*
X191698648Y-104688549D01*
X191536994Y-105338575D01*
X191535197Y-105345046D01*
X191338597Y-105985339D01*
X191336453Y-105991703D01*
X191105470Y-106620430D01*
X191102984Y-106626669D01*
X190838304Y-107241961D01*
X190835484Y-107248056D01*
X190537879Y-107848122D01*
X190534733Y-107854055D01*
X190205084Y-108437116D01*
X190201622Y-108442870D01*
X189840895Y-109007223D01*
X189837126Y-109012782D01*
X189446346Y-109556818D01*
X189442282Y-109562164D01*
X189022661Y-110084195D01*
X189018314Y-110089314D01*
X188571005Y-110587909D01*
X188566386Y-110592784D01*
X188092784Y-111066386D01*
X188087909Y-111071005D01*
X187589314Y-111518314D01*
X187584195Y-111522661D01*
X187062164Y-111942282D01*
X187056818Y-111946346D01*
X186512782Y-112337126D01*
X186507223Y-112340895D01*
X185942870Y-112701622D01*
X185937116Y-112705084D01*
X185354055Y-113034733D01*
X185348122Y-113037879D01*
X184748056Y-113335484D01*
X184741961Y-113338304D01*
X184126669Y-113602984D01*
X184120430Y-113605470D01*
X183491703Y-113836453D01*
X183485339Y-113838597D01*
X182845046Y-114035197D01*
X182838575Y-114036994D01*
X182188549Y-114198648D01*
X182181990Y-114200091D01*
X181524208Y-114326309D01*
X181517581Y-114327396D01*
X180853896Y-114417820D01*
X180847220Y-114418546D01*
X180179631Y-114472906D01*
X180172925Y-114473270D01*
X179501661Y-114491455D01*
X179498303Y-114491500D01*
X120501698Y-114491500D01*
X120498340Y-114491455D01*
X119827075Y-114473270D01*
X119820369Y-114472906D01*
X119152780Y-114418546D01*
X119146104Y-114417820D01*
X118482419Y-114327396D01*
X118475792Y-114326309D01*
X117818010Y-114200091D01*
X117811451Y-114198648D01*
X117161425Y-114036994D01*
X117154954Y-114035197D01*
X116514661Y-113838597D01*
X116508297Y-113836453D01*
X115879570Y-113605470D01*
X115873331Y-113602984D01*
X115258039Y-113338305D01*
X115251944Y-113335485D01*
X114651878Y-113037879D01*
X114645964Y-113034744D01*
X114062860Y-112705072D01*
X114057130Y-112701623D01*
X113492776Y-112340895D01*
X113492751Y-112340878D01*
X113487216Y-112337126D01*
X113273271Y-112183450D01*
X112943194Y-111946355D01*
X112937848Y-111942291D01*
X112415805Y-111522662D01*
X112410686Y-111518315D01*
X111912091Y-111071005D01*
X111907216Y-111066386D01*
X111433614Y-110592784D01*
X111428995Y-110587909D01*
X110981685Y-110089314D01*
X110977338Y-110084195D01*
X110557709Y-109562152D01*
X110553645Y-109556806D01*
X110399664Y-109342439D01*
X110162867Y-109012776D01*
X110159126Y-109007258D01*
X109798372Y-108442863D01*
X109794915Y-108437116D01*
X109465266Y-107854055D01*
X109462120Y-107848122D01*
X109446959Y-107817553D01*
X109164510Y-107248046D01*
X109161695Y-107241961D01*
X109146890Y-107207544D01*
X108897010Y-106626657D01*
X108894529Y-106620430D01*
X108663540Y-105991686D01*
X108661408Y-105985356D01*
X108564153Y-105668613D01*
X111749500Y-105668613D01*
X111749501Y-105668652D01*
X111752295Y-105721243D01*
X111752295Y-105721244D01*
X111757857Y-105750000D01*
X111796755Y-105951126D01*
X111842329Y-106071889D01*
X111879425Y-106170189D01*
X111997929Y-106372131D01*
X111997934Y-106372138D01*
X112148856Y-106551141D01*
X112148858Y-106551143D01*
X112327861Y-106702065D01*
X112327868Y-106702070D01*
X112529810Y-106820574D01*
X112748874Y-106903245D01*
X112978759Y-106947705D01*
X113031378Y-106950500D01*
X113031386Y-106950500D01*
X114968614Y-106950500D01*
X114968622Y-106950500D01*
X115021241Y-106947705D01*
X115251126Y-106903245D01*
X115265369Y-106897870D01*
X147359500Y-106897870D01*
X147359501Y-106897876D01*
X147365908Y-106957483D01*
X147416202Y-107092328D01*
X147416206Y-107092335D01*
X147502452Y-107207544D01*
X147502455Y-107207547D01*
X147617664Y-107293793D01*
X147617671Y-107293797D01*
X147752517Y-107344091D01*
X147752516Y-107344091D01*
X147759444Y-107344835D01*
X147812127Y-107350500D01*
X149607872Y-107350499D01*
X149667483Y-107344091D01*
X149802331Y-107293796D01*
X149917546Y-107207546D01*
X150003796Y-107092331D01*
X150053002Y-106960401D01*
X150094872Y-106904468D01*
X150160337Y-106880050D01*
X150228610Y-106894901D01*
X150256865Y-106916053D01*
X150378917Y-107038105D01*
X150572421Y-107173600D01*
X150786507Y-107273429D01*
X150786516Y-107273433D01*
X151000000Y-107330634D01*
X151000000Y-106435501D01*
X151107685Y-106484680D01*
X151214237Y-106500000D01*
X151285763Y-106500000D01*
X151392315Y-106484680D01*
X151500000Y-106435501D01*
X151500000Y-107330633D01*
X151713483Y-107273433D01*
X151713492Y-107273429D01*
X151927578Y-107173600D01*
X152121082Y-107038105D01*
X152288105Y-106871082D01*
X152423600Y-106677578D01*
X152523429Y-106463492D01*
X152523432Y-106463486D01*
X152580636Y-106250000D01*
X151683686Y-106250000D01*
X151709493Y-106209844D01*
X151750000Y-106071889D01*
X151750000Y-105928111D01*
X151709493Y-105790156D01*
X151683686Y-105750000D01*
X152580636Y-105750000D01*
X152580635Y-105749999D01*
X152523432Y-105536513D01*
X152523429Y-105536507D01*
X152423600Y-105322422D01*
X152423599Y-105322420D01*
X152288113Y-105128926D01*
X152288108Y-105128920D01*
X152121082Y-104961894D01*
X151927578Y-104826399D01*
X151713492Y-104726570D01*
X151713486Y-104726567D01*
X151500000Y-104669364D01*
X151500000Y-105564498D01*
X151392315Y-105515320D01*
X151285763Y-105500000D01*
X151214237Y-105500000D01*
X151107685Y-105515320D01*
X151000000Y-105564498D01*
X151000000Y-104669364D01*
X150999999Y-104669364D01*
X150786513Y-104726567D01*
X150786507Y-104726570D01*
X150572422Y-104826399D01*
X150572420Y-104826400D01*
X150378926Y-104961886D01*
X150256865Y-105083947D01*
X150195542Y-105117431D01*
X150125850Y-105112447D01*
X150069917Y-105070575D01*
X150053002Y-105039598D01*
X150003797Y-104907671D01*
X150003793Y-104907664D01*
X149917547Y-104792455D01*
X149917544Y-104792452D01*
X149802335Y-104706206D01*
X149802328Y-104706202D01*
X149667482Y-104655908D01*
X149667483Y-104655908D01*
X149607883Y-104649501D01*
X149607881Y-104649500D01*
X149607873Y-104649500D01*
X149607864Y-104649500D01*
X147812129Y-104649500D01*
X147812123Y-104649501D01*
X147752516Y-104655908D01*
X147617671Y-104706202D01*
X147617664Y-104706206D01*
X147502455Y-104792452D01*
X147502452Y-104792455D01*
X147416206Y-104907664D01*
X147416202Y-104907671D01*
X147365908Y-105042517D01*
X147359501Y-105102116D01*
X147359500Y-105102135D01*
X147359500Y-106897870D01*
X115265369Y-106897870D01*
X115470190Y-106820574D01*
X115672132Y-106702070D01*
X115851142Y-106551142D01*
X116002070Y-106372132D01*
X116120574Y-106170190D01*
X116203245Y-105951126D01*
X116247705Y-105721241D01*
X116250500Y-105668622D01*
X116250500Y-103731378D01*
X116247705Y-103678759D01*
X116203245Y-103448874D01*
X116120574Y-103229810D01*
X116002070Y-103027868D01*
X116002065Y-103027861D01*
X115851143Y-102848858D01*
X115851141Y-102848856D01*
X115672138Y-102697934D01*
X115672131Y-102697929D01*
X115470189Y-102579425D01*
X115379832Y-102545326D01*
X115251126Y-102496755D01*
X115245899Y-102495744D01*
X115183817Y-102463688D01*
X115148922Y-102403156D01*
X115152291Y-102333368D01*
X115192856Y-102276480D01*
X115257738Y-102250554D01*
X115269445Y-102250000D01*
X116750000Y-102250000D01*
X116750000Y-101433686D01*
X116790156Y-101459493D01*
X116928111Y-101500000D01*
X117071889Y-101500000D01*
X117209844Y-101459493D01*
X117250000Y-101433686D01*
X117250000Y-102250000D01*
X118797828Y-102250000D01*
X118797844Y-102249999D01*
X118857372Y-102243598D01*
X118857379Y-102243596D01*
X118992086Y-102193354D01*
X118992093Y-102193350D01*
X119107187Y-102107190D01*
X119107190Y-102107187D01*
X119193350Y-101992093D01*
X119193354Y-101992086D01*
X119243596Y-101857379D01*
X119243598Y-101857372D01*
X119249999Y-101797844D01*
X119250000Y-101797827D01*
X119250000Y-100250000D01*
X117500000Y-100250000D01*
X117500000Y-99750000D01*
X119250000Y-99750000D01*
X119250000Y-98750000D01*
X123512040Y-98750000D01*
X123531826Y-98938256D01*
X123531827Y-98938259D01*
X123590318Y-99118277D01*
X123590321Y-99118284D01*
X123684967Y-99282216D01*
X123794484Y-99403847D01*
X123811629Y-99422888D01*
X123964765Y-99534148D01*
X123964770Y-99534151D01*
X124137692Y-99611142D01*
X124137697Y-99611144D01*
X124322854Y-99650500D01*
X124378230Y-99650500D01*
X124445269Y-99670185D01*
X124463114Y-99684108D01*
X124479346Y-99699351D01*
X124482143Y-99702062D01*
X124501707Y-99721626D01*
X124504885Y-99724090D01*
X124513781Y-99731687D01*
X124545735Y-99761695D01*
X124545737Y-99761696D01*
X124563367Y-99771387D01*
X124579635Y-99782072D01*
X124595538Y-99794408D01*
X124635762Y-99811814D01*
X124646254Y-99816954D01*
X124684658Y-99838068D01*
X124684660Y-99838069D01*
X124684666Y-99838072D01*
X124703740Y-99842969D01*
X124704160Y-99843077D01*
X124722564Y-99849377D01*
X124741042Y-99857374D01*
X124784351Y-99864233D01*
X124795758Y-99866595D01*
X124838228Y-99877500D01*
X124858358Y-99877500D01*
X124877757Y-99879027D01*
X124897633Y-99882175D01*
X124937428Y-99878413D01*
X124941270Y-99878050D01*
X124952939Y-99877500D01*
X130067033Y-99877500D01*
X130082681Y-99879227D01*
X130082708Y-99878946D01*
X130090475Y-99879680D01*
X130090476Y-99879679D01*
X130090477Y-99879680D01*
X130157919Y-99877561D01*
X130161813Y-99877500D01*
X130184116Y-99877500D01*
X130209896Y-99880209D01*
X130305354Y-99900500D01*
X130305355Y-99900500D01*
X130494644Y-99900500D01*
X130494646Y-99900500D01*
X130679803Y-99861144D01*
X130852730Y-99784151D01*
X131005871Y-99672888D01*
X131132533Y-99532216D01*
X131227179Y-99368284D01*
X131285674Y-99188256D01*
X131305460Y-99000000D01*
X131285674Y-98811744D01*
X131260740Y-98735005D01*
X184844700Y-98735005D01*
X184863864Y-98966296D01*
X184863866Y-98966307D01*
X184920842Y-99191299D01*
X185014075Y-99403847D01*
X185141016Y-99598146D01*
X185141019Y-99598150D01*
X185141021Y-99598152D01*
X185235803Y-99701113D01*
X185266724Y-99763766D01*
X185258864Y-99833192D01*
X185214716Y-99887347D01*
X185187906Y-99901276D01*
X185107669Y-99931202D01*
X185107664Y-99931205D01*
X184992455Y-100017451D01*
X184992452Y-100017454D01*
X184906206Y-100132663D01*
X184906202Y-100132670D01*
X184855908Y-100267516D01*
X184849501Y-100327115D01*
X184849501Y-100327122D01*
X184849500Y-100327134D01*
X184849500Y-102222869D01*
X184849501Y-102222875D01*
X184855908Y-102282482D01*
X184906202Y-102417327D01*
X184906206Y-102417334D01*
X184992452Y-102532543D01*
X184992455Y-102532546D01*
X185107664Y-102618792D01*
X185107671Y-102618796D01*
X185242517Y-102669090D01*
X185242516Y-102669090D01*
X185249444Y-102669834D01*
X185302127Y-102675499D01*
X187197872Y-102675498D01*
X187257483Y-102669090D01*
X187392331Y-102618795D01*
X187507546Y-102532545D01*
X187593796Y-102417330D01*
X187644091Y-102282482D01*
X187650500Y-102222872D01*
X187650499Y-100327127D01*
X187644091Y-100267516D01*
X187593796Y-100132668D01*
X187593795Y-100132667D01*
X187593793Y-100132663D01*
X187507547Y-100017454D01*
X187507544Y-100017451D01*
X187392335Y-99931205D01*
X187392328Y-99931201D01*
X187312094Y-99901276D01*
X187256160Y-99859405D01*
X187231743Y-99793940D01*
X187246595Y-99725667D01*
X187264190Y-99701120D01*
X187358979Y-99598152D01*
X187485924Y-99403848D01*
X187579157Y-99191299D01*
X187636134Y-98966304D01*
X187636135Y-98966296D01*
X187655300Y-98735005D01*
X187655300Y-98734992D01*
X187636135Y-98503701D01*
X187636133Y-98503690D01*
X187579157Y-98278698D01*
X187485924Y-98066150D01*
X187358983Y-97871851D01*
X187358980Y-97871848D01*
X187358979Y-97871846D01*
X187201784Y-97701086D01*
X187201779Y-97701082D01*
X187201777Y-97701080D01*
X187018634Y-97558534D01*
X187018628Y-97558530D01*
X186814504Y-97448063D01*
X186814495Y-97448060D01*
X186594984Y-97372701D01*
X186423282Y-97344049D01*
X186366049Y-97334499D01*
X186133951Y-97334499D01*
X186088164Y-97342139D01*
X185905015Y-97372701D01*
X185685504Y-97448060D01*
X185685495Y-97448063D01*
X185481371Y-97558530D01*
X185481365Y-97558534D01*
X185298222Y-97701080D01*
X185298219Y-97701083D01*
X185141016Y-97871851D01*
X185014075Y-98066150D01*
X184920842Y-98278698D01*
X184863866Y-98503690D01*
X184863864Y-98503701D01*
X184844700Y-98734992D01*
X184844700Y-98735005D01*
X131260740Y-98735005D01*
X131227179Y-98631716D01*
X131132533Y-98467784D01*
X131005871Y-98327112D01*
X131005870Y-98327111D01*
X130852734Y-98215851D01*
X130852729Y-98215848D01*
X130679807Y-98138857D01*
X130679802Y-98138855D01*
X130534001Y-98107865D01*
X130494646Y-98099500D01*
X130305354Y-98099500D01*
X130272897Y-98106398D01*
X130120197Y-98138855D01*
X130120192Y-98138857D01*
X129947270Y-98215848D01*
X129947265Y-98215851D01*
X129794129Y-98327111D01*
X129667465Y-98467785D01*
X129613937Y-98560500D01*
X129563370Y-98608716D01*
X129506550Y-98622500D01*
X125413006Y-98622500D01*
X125345967Y-98602815D01*
X125300212Y-98550011D01*
X125295075Y-98536818D01*
X125244681Y-98381721D01*
X125244678Y-98381715D01*
X125213153Y-98327112D01*
X125150033Y-98217784D01*
X125023371Y-98077112D01*
X125023370Y-98077111D01*
X124870234Y-97965851D01*
X124870229Y-97965848D01*
X124697307Y-97888857D01*
X124697302Y-97888855D01*
X124551501Y-97857865D01*
X124512146Y-97849500D01*
X124322854Y-97849500D01*
X124290397Y-97856398D01*
X124137697Y-97888855D01*
X124137692Y-97888857D01*
X123964770Y-97965848D01*
X123964765Y-97965851D01*
X123811629Y-98077111D01*
X123684966Y-98217785D01*
X123590321Y-98381715D01*
X123590318Y-98381722D01*
X123550685Y-98503701D01*
X123531826Y-98561744D01*
X123512040Y-98750000D01*
X119250000Y-98750000D01*
X119250000Y-98202172D01*
X119249999Y-98202155D01*
X119243598Y-98142627D01*
X119243596Y-98142620D01*
X119193354Y-98007913D01*
X119193350Y-98007906D01*
X119107190Y-97892812D01*
X119107187Y-97892809D01*
X118992093Y-97806649D01*
X118992086Y-97806645D01*
X118857379Y-97756403D01*
X118857372Y-97756401D01*
X118797844Y-97750000D01*
X117250000Y-97750000D01*
X117250000Y-98566313D01*
X117209844Y-98540507D01*
X117071889Y-98500000D01*
X116928111Y-98500000D01*
X116790156Y-98540507D01*
X116750000Y-98566313D01*
X116750000Y-97750000D01*
X115202155Y-97750000D01*
X115142627Y-97756401D01*
X115142620Y-97756403D01*
X115007913Y-97806645D01*
X115007906Y-97806649D01*
X114892812Y-97892809D01*
X114892809Y-97892812D01*
X114806649Y-98007906D01*
X114806645Y-98007913D01*
X114756403Y-98142620D01*
X114756401Y-98142627D01*
X114750000Y-98202155D01*
X114750000Y-99750000D01*
X116500000Y-99750000D01*
X116500000Y-100250000D01*
X114750000Y-100250000D01*
X114750000Y-101797844D01*
X114756401Y-101857372D01*
X114756403Y-101857379D01*
X114806645Y-101992086D01*
X114806649Y-101992093D01*
X114892809Y-102107187D01*
X114892812Y-102107190D01*
X115007906Y-102193350D01*
X115007911Y-102193353D01*
X115056605Y-102211515D01*
X115112538Y-102253387D01*
X115136955Y-102318851D01*
X115122103Y-102387124D01*
X115072698Y-102436529D01*
X115006692Y-102451522D01*
X114968652Y-102449501D01*
X114968629Y-102449500D01*
X114968622Y-102449500D01*
X113031378Y-102449500D01*
X113031370Y-102449500D01*
X113031347Y-102449501D01*
X112978756Y-102452295D01*
X112978755Y-102452295D01*
X112748878Y-102496754D01*
X112748876Y-102496754D01*
X112748874Y-102496755D01*
X112674933Y-102524659D01*
X112529810Y-102579425D01*
X112327868Y-102697929D01*
X112327861Y-102697934D01*
X112148858Y-102848856D01*
X112148856Y-102848858D01*
X111997934Y-103027861D01*
X111997929Y-103027868D01*
X111879425Y-103229810D01*
X111832598Y-103353896D01*
X111796755Y-103448874D01*
X111796754Y-103448876D01*
X111796754Y-103448878D01*
X111752295Y-103678755D01*
X111752295Y-103678756D01*
X111749501Y-103731347D01*
X111749500Y-103731386D01*
X111749500Y-105668613D01*
X108564153Y-105668613D01*
X108464797Y-105345030D01*
X108463009Y-105338592D01*
X108301349Y-104688540D01*
X108299908Y-104681990D01*
X108173686Y-104024181D01*
X108172608Y-104017609D01*
X108082177Y-103353885D01*
X108081453Y-103347220D01*
X108055448Y-103027861D01*
X108027092Y-102679624D01*
X108026729Y-102672925D01*
X108020731Y-102451522D01*
X108008545Y-102001661D01*
X108008500Y-101998303D01*
X108008500Y-101064208D01*
X108999500Y-101064208D01*
X108999501Y-101064223D01*
X109009904Y-101196413D01*
X109009905Y-101196420D01*
X109064902Y-101414678D01*
X109064903Y-101414681D01*
X109157991Y-101619622D01*
X109157997Y-101619632D01*
X109286174Y-101804645D01*
X109286178Y-101804650D01*
X109286181Y-101804654D01*
X109445346Y-101963819D01*
X109445350Y-101963822D01*
X109445354Y-101963825D01*
X109584603Y-102060297D01*
X109630374Y-102092007D01*
X109835317Y-102185096D01*
X109835321Y-102185097D01*
X110053579Y-102240094D01*
X110053581Y-102240094D01*
X110053588Y-102240096D01*
X110185783Y-102250500D01*
X111814216Y-102250499D01*
X111946412Y-102240096D01*
X112164683Y-102185096D01*
X112369626Y-102092007D01*
X112554654Y-101963819D01*
X112713819Y-101804654D01*
X112842007Y-101619626D01*
X112935096Y-101414683D01*
X112990096Y-101196412D01*
X113000500Y-101064217D01*
X113000499Y-98935784D01*
X112990096Y-98803588D01*
X112972814Y-98735005D01*
X112935097Y-98585321D01*
X112935096Y-98585318D01*
X112924388Y-98561744D01*
X112842007Y-98380374D01*
X112729365Y-98217785D01*
X112713825Y-98195354D01*
X112713822Y-98195350D01*
X112713819Y-98195346D01*
X112554654Y-98036181D01*
X112554650Y-98036178D01*
X112554645Y-98036174D01*
X112369632Y-97907997D01*
X112369630Y-97907995D01*
X112369626Y-97907993D01*
X112336197Y-97892809D01*
X112164681Y-97814903D01*
X112164678Y-97814902D01*
X111946420Y-97759905D01*
X111946413Y-97759904D01*
X111901902Y-97756401D01*
X111814217Y-97749500D01*
X111814215Y-97749500D01*
X110185791Y-97749500D01*
X110185776Y-97749501D01*
X110053586Y-97759904D01*
X110053579Y-97759905D01*
X109835321Y-97814902D01*
X109835318Y-97814903D01*
X109630377Y-97907991D01*
X109630367Y-97907997D01*
X109445354Y-98036174D01*
X109445342Y-98036184D01*
X109286184Y-98195342D01*
X109286174Y-98195354D01*
X109157997Y-98380367D01*
X109157991Y-98380377D01*
X109064903Y-98585318D01*
X109064902Y-98585321D01*
X109009905Y-98803579D01*
X109009904Y-98803586D01*
X108999500Y-98935777D01*
X108999500Y-101064208D01*
X108008500Y-101064208D01*
X108008500Y-100040615D01*
X108008641Y-100036431D01*
X108008633Y-100034442D01*
X108008634Y-100034439D01*
X108008500Y-99999098D01*
X108008500Y-99963632D01*
X108008500Y-99961623D01*
X108008341Y-99957423D01*
X108008046Y-99879680D01*
X108000897Y-97994195D01*
X108000941Y-97990389D01*
X108003174Y-97907993D01*
X108019117Y-97319452D01*
X108019481Y-97312756D01*
X108050473Y-96932160D01*
X108073843Y-96645158D01*
X108074568Y-96638493D01*
X108130419Y-96228571D01*
X108164998Y-95974773D01*
X108166074Y-95968213D01*
X108292301Y-95310380D01*
X108293741Y-95303839D01*
X108409638Y-94837811D01*
X108455403Y-94653786D01*
X108457185Y-94647368D01*
X108653802Y-94007021D01*
X108655927Y-94000715D01*
X108886929Y-93371934D01*
X108889395Y-93365745D01*
X109154097Y-92750404D01*
X109156894Y-92744358D01*
X109454521Y-92144248D01*
X109457647Y-92138353D01*
X109787313Y-91555262D01*
X109790750Y-91549549D01*
X110151517Y-90985134D01*
X110155271Y-90979600D01*
X110546045Y-90435572D01*
X110550094Y-90430245D01*
X110969746Y-89908175D01*
X110974058Y-89903097D01*
X111421403Y-89404463D01*
X111425986Y-89399626D01*
X111899626Y-88925986D01*
X111904463Y-88921403D01*
X112403097Y-88474058D01*
X112408175Y-88469746D01*
X112930245Y-88050094D01*
X112935572Y-88046045D01*
X113479600Y-87655271D01*
X113485134Y-87651517D01*
X114049549Y-87290750D01*
X114055262Y-87287313D01*
X114638353Y-86957647D01*
X114644248Y-86954521D01*
X115244358Y-86656894D01*
X115250404Y-86654097D01*
X115865745Y-86389395D01*
X115871934Y-86386929D01*
X116500715Y-86155927D01*
X116507021Y-86153802D01*
X117147368Y-85957185D01*
X117153786Y-85955403D01*
X117803856Y-85793737D01*
X117810380Y-85792301D01*
X118468213Y-85666074D01*
X118474773Y-85664998D01*
X119138503Y-85574566D01*
X119145158Y-85573843D01*
X119812766Y-85519480D01*
X119819452Y-85519117D01*
X120490727Y-85500933D01*
X120494085Y-85500888D01*
X120494710Y-85500888D01*
X179424495Y-85508489D01*
G37*
%TD.AperFunction*%
%TD*%
M02*
