%TF.GenerationSoftware,KiCad,Pcbnew,7.0.10*%
%TF.CreationDate,2024-11-23T20:10:39-08:00*%
%TF.ProjectId,charging-base rev1,63686172-6769-46e6-972d-626173652072,rev?*%
%TF.SameCoordinates,Original*%
%TF.FileFunction,Copper,L1,Top*%
%TF.FilePolarity,Positive*%
%FSLAX46Y46*%
G04 Gerber Fmt 4.6, Leading zero omitted, Abs format (unit mm)*
G04 Created by KiCad (PCBNEW 7.0.10) date 2024-11-23 20:10:39*
%MOMM*%
%LPD*%
G01*
G04 APERTURE LIST*
G04 Aperture macros list*
%AMRoundRect*
0 Rectangle with rounded corners*
0 $1 Rounding radius*
0 $2 $3 $4 $5 $6 $7 $8 $9 X,Y pos of 4 corners*
0 Add a 4 corners polygon primitive as box body*
4,1,4,$2,$3,$4,$5,$6,$7,$8,$9,$2,$3,0*
0 Add four circle primitives for the rounded corners*
1,1,$1+$1,$2,$3*
1,1,$1+$1,$4,$5*
1,1,$1+$1,$6,$7*
1,1,$1+$1,$8,$9*
0 Add four rect primitives between the rounded corners*
20,1,$1+$1,$2,$3,$4,$5,0*
20,1,$1+$1,$4,$5,$6,$7,0*
20,1,$1+$1,$6,$7,$8,$9,0*
20,1,$1+$1,$8,$9,$2,$3,0*%
G04 Aperture macros list end*
%TA.AperFunction,SMDPad,CuDef*%
%ADD10RoundRect,0.250000X-0.312500X-0.625000X0.312500X-0.625000X0.312500X0.625000X-0.312500X0.625000X0*%
%TD*%
%TA.AperFunction,SMDPad,CuDef*%
%ADD11RoundRect,0.225000X0.225000X0.250000X-0.225000X0.250000X-0.225000X-0.250000X0.225000X-0.250000X0*%
%TD*%
%TA.AperFunction,ComponentPad*%
%ADD12R,1.700000X1.700000*%
%TD*%
%TA.AperFunction,ComponentPad*%
%ADD13O,1.700000X1.700000*%
%TD*%
%TA.AperFunction,ComponentPad*%
%ADD14R,3.500000X3.500000*%
%TD*%
%TA.AperFunction,ComponentPad*%
%ADD15RoundRect,0.750000X-0.750000X-1.000000X0.750000X-1.000000X0.750000X1.000000X-0.750000X1.000000X0*%
%TD*%
%TA.AperFunction,ComponentPad*%
%ADD16RoundRect,0.875000X-0.875000X-0.875000X0.875000X-0.875000X0.875000X0.875000X-0.875000X0.875000X0*%
%TD*%
%TA.AperFunction,ComponentPad*%
%ADD17R,1.800000X1.800000*%
%TD*%
%TA.AperFunction,ComponentPad*%
%ADD18C,1.800000*%
%TD*%
%TA.AperFunction,SMDPad,CuDef*%
%ADD19RoundRect,0.225000X-0.225000X-0.250000X0.225000X-0.250000X0.225000X0.250000X-0.225000X0.250000X0*%
%TD*%
%TA.AperFunction,SMDPad,CuDef*%
%ADD20R,0.500000X0.300000*%
%TD*%
%TA.AperFunction,SMDPad,CuDef*%
%ADD21R,1.050000X1.750000*%
%TD*%
%TA.AperFunction,SMDPad,CuDef*%
%ADD22RoundRect,0.150000X-0.512500X-0.150000X0.512500X-0.150000X0.512500X0.150000X-0.512500X0.150000X0*%
%TD*%
%TA.AperFunction,ViaPad*%
%ADD23C,0.800000*%
%TD*%
%TA.AperFunction,Conductor*%
%ADD24C,0.250000*%
%TD*%
%TA.AperFunction,Conductor*%
%ADD25C,0.254000*%
%TD*%
%TA.AperFunction,Conductor*%
%ADD26C,0.381000*%
%TD*%
%TA.AperFunction,Conductor*%
%ADD27C,1.016000*%
%TD*%
G04 APERTURE END LIST*
D10*
%TO.P,R3,1*%
%TO.N,GND*%
X128787500Y-105750000D03*
%TO.P,R3,2*%
%TO.N,Net-(J2-Pin_1)*%
X131712500Y-105750000D03*
%TD*%
D11*
%TO.P,R4,1*%
%TO.N,Net-(Q1-G)*%
X167750000Y-101500000D03*
%TO.P,R4,2*%
%TO.N,GND*%
X166200000Y-101500000D03*
%TD*%
D12*
%TO.P,J2,1,Pin_1*%
%TO.N,Net-(J2-Pin_1)*%
X148710000Y-106000000D03*
D13*
%TO.P,J2,2,Pin_2*%
%TO.N,+VDC*%
X151250000Y-106000000D03*
%TD*%
D11*
%TO.P,R2,1*%
%TO.N,Net-(U1A--)*%
X131249999Y-98240001D03*
%TO.P,R2,2*%
%TO.N,/output-voltage*%
X129699999Y-98240001D03*
%TD*%
D14*
%TO.P,J1,1*%
%TO.N,+VDC*%
X117000000Y-100000000D03*
D15*
%TO.P,J1,2*%
%TO.N,GND*%
X111000000Y-100000000D03*
D16*
%TO.P,J1,3*%
X114000000Y-104700000D03*
%TD*%
D17*
%TO.P,D1,1,K*%
%TO.N,Net-(D1-K)*%
X186250000Y-101274999D03*
D18*
%TO.P,D1,2,A*%
%TO.N,Net-(D1-A)*%
X186250000Y-98734999D03*
%TD*%
D11*
%TO.P,R6,1*%
%TO.N,Net-(D1-A)*%
X180775000Y-95000000D03*
%TO.P,R6,2*%
%TO.N,+VDC*%
X179225000Y-95000000D03*
%TD*%
%TO.P,R1,1*%
%TO.N,Net-(U1A--)*%
X131250000Y-100750000D03*
%TO.P,R1,2*%
%TO.N,GND*%
X129700000Y-100750000D03*
%TD*%
D19*
%TO.P,R5,1*%
%TO.N,/output-voltage*%
X166175000Y-98750000D03*
%TO.P,R5,2*%
%TO.N,Net-(Q1-G)*%
X167725000Y-98750000D03*
%TD*%
D20*
%TO.P,U1,1*%
%TO.N,/output-voltage*%
X134600000Y-99187500D03*
%TO.P,U1,2,-*%
%TO.N,Net-(U1A--)*%
X134600000Y-99687500D03*
%TO.P,U1,3,+*%
%TO.N,Net-(J2-Pin_1)*%
X134600000Y-100187500D03*
%TO.P,U1,4,V-*%
%TO.N,GND*%
X134600000Y-100687500D03*
%TO.P,U1,5,+*%
%TO.N,unconnected-(U1B-+-Pad5)*%
X136400000Y-100687500D03*
%TO.P,U1,6,-*%
%TO.N,unconnected-(U1B---Pad6)*%
X136400000Y-100187500D03*
%TO.P,U1,7*%
%TO.N,unconnected-(U1-Pad7)*%
X136400000Y-99687500D03*
%TO.P,U1,8,V+*%
%TO.N,+VDC*%
X136400000Y-99187500D03*
D21*
%TO.P,U1,9,PAD*%
%TO.N,GND*%
X135500000Y-99937500D03*
%TD*%
D22*
%TO.P,Q1,1,D*%
%TO.N,Net-(D1-K)*%
X175387500Y-100000000D03*
%TO.P,Q1,2,G*%
%TO.N,Net-(Q1-G)*%
X173112500Y-99050000D03*
%TO.P,Q1,3,S*%
%TO.N,GND*%
X173112500Y-100950000D03*
%TD*%
D23*
%TO.N,+VDC*%
X138000000Y-98500000D03*
X177000000Y-95000000D03*
%TO.N,/output-voltage*%
X133000000Y-99000000D03*
X127500000Y-98750000D03*
%TD*%
D24*
%TO.N,GND*%
X135150000Y-100687500D02*
X135500000Y-100337500D01*
X134600000Y-100687500D02*
X135150000Y-100687500D01*
X135500000Y-100337500D02*
X135500000Y-99937500D01*
D25*
%TO.N,Net-(U1A--)*%
X132514067Y-100750000D02*
X131250000Y-100750000D01*
X133576567Y-99687500D02*
X132514067Y-100750000D01*
X134600000Y-99687500D02*
X133576567Y-99687500D01*
%TO.N,/output-voltage*%
X134512500Y-99100000D02*
X134600000Y-99187500D01*
X133100000Y-99100000D02*
X134512500Y-99100000D01*
X133000000Y-99000000D02*
X133100000Y-99100000D01*
D26*
%TO.N,Net-(D1-K)*%
X175387500Y-100000000D02*
X176137500Y-100750000D01*
X185725001Y-100750000D02*
X186250000Y-101274999D01*
X176137500Y-100750000D02*
X185725001Y-100750000D01*
%TO.N,Net-(D1-A)*%
X180775000Y-95000000D02*
X182515001Y-95000000D01*
X182515001Y-95000000D02*
X186250000Y-98734999D01*
D25*
%TO.N,+VDC*%
X137312500Y-99187500D02*
X138000000Y-98500000D01*
D26*
X179225000Y-95000000D02*
X177000000Y-95000000D01*
D25*
X136400000Y-99187500D02*
X137312500Y-99187500D01*
D27*
%TO.N,GND*%
X128787500Y-105750000D02*
X127737500Y-104700000D01*
X127737500Y-104700000D02*
X114000000Y-104700000D01*
D25*
%TO.N,Net-(J2-Pin_1)*%
X131712500Y-102537500D02*
X131712500Y-105750000D01*
X134062500Y-100187500D02*
X131712500Y-102537500D01*
X134600000Y-100187500D02*
X134062500Y-100187500D01*
D27*
X131962500Y-106000000D02*
X131712500Y-105750000D01*
X148710000Y-106000000D02*
X131962500Y-106000000D01*
D26*
%TO.N,Net-(Q1-G)*%
X167750000Y-98775000D02*
X167725000Y-98750000D01*
X170200000Y-99050000D02*
X167750000Y-101500000D01*
X173112500Y-99050000D02*
X170200000Y-99050000D01*
X167750000Y-101500000D02*
X167750000Y-98775000D01*
X168025000Y-99050000D02*
X173112500Y-99050000D01*
X167725000Y-98750000D02*
X168025000Y-99050000D01*
D25*
%TO.N,Net-(U1A--)*%
X131249999Y-98240001D02*
X131250000Y-100750000D01*
%TO.N,/output-voltage*%
X128000000Y-98000000D02*
X129459998Y-98000000D01*
X129459998Y-98000000D02*
X129699999Y-98240001D01*
X163925000Y-96500000D02*
X166175000Y-98750000D01*
X135500000Y-96500000D02*
X163925000Y-96500000D01*
X127500000Y-98500000D02*
X128000000Y-98000000D01*
X133000000Y-99000000D02*
X135500000Y-96500000D01*
X127500000Y-98750000D02*
X127500000Y-98500000D01*
%TD*%
%TA.AperFunction,Conductor*%
%TO.N,GND*%
G36*
X179424495Y-85508489D02*
G01*
X179424632Y-85508500D01*
X179433054Y-85508500D01*
X179497545Y-85508500D01*
X179498313Y-85508500D01*
X179501671Y-85508545D01*
X180172932Y-85526729D01*
X180179623Y-85527092D01*
X180847229Y-85581454D01*
X180853884Y-85582177D01*
X181517608Y-85672607D01*
X181524180Y-85673685D01*
X182181999Y-85799910D01*
X182188539Y-85801349D01*
X182838591Y-85963009D01*
X182845029Y-85964797D01*
X183485355Y-86161408D01*
X183491685Y-86163540D01*
X184120441Y-86394533D01*
X184126656Y-86397010D01*
X184741971Y-86661699D01*
X184748045Y-86664509D01*
X185133882Y-86855867D01*
X185348121Y-86962120D01*
X185354022Y-86965248D01*
X185937150Y-87294934D01*
X185942861Y-87298371D01*
X186507257Y-87659126D01*
X186512775Y-87662867D01*
X186842872Y-87899976D01*
X187056805Y-88053644D01*
X187062151Y-88057708D01*
X187584194Y-88477337D01*
X187589313Y-88481684D01*
X188087908Y-88928994D01*
X188092783Y-88933613D01*
X188566385Y-89407215D01*
X188571004Y-89412090D01*
X189018314Y-89910685D01*
X189022661Y-89915804D01*
X189442290Y-90437847D01*
X189446354Y-90443193D01*
X189683137Y-90772836D01*
X189837126Y-90987215D01*
X189840887Y-90992762D01*
X190201622Y-91557129D01*
X190205084Y-91562883D01*
X190534733Y-92145944D01*
X190537879Y-92151877D01*
X190835484Y-92751943D01*
X190838304Y-92758038D01*
X191102984Y-93373330D01*
X191105470Y-93379569D01*
X191336453Y-94008296D01*
X191338597Y-94014660D01*
X191535197Y-94654953D01*
X191536994Y-94661424D01*
X191698648Y-95311450D01*
X191700091Y-95318009D01*
X191826308Y-95975791D01*
X191827395Y-95982418D01*
X191917820Y-96646103D01*
X191918546Y-96652779D01*
X191972906Y-97320368D01*
X191973270Y-97327074D01*
X191991455Y-97998338D01*
X191991500Y-98001696D01*
X191991500Y-101998303D01*
X191991455Y-102001661D01*
X191973270Y-102672925D01*
X191972906Y-102679631D01*
X191918546Y-103347220D01*
X191917820Y-103353896D01*
X191827396Y-104017581D01*
X191826309Y-104024208D01*
X191700091Y-104681990D01*
X191698648Y-104688549D01*
X191536994Y-105338575D01*
X191535197Y-105345046D01*
X191338597Y-105985339D01*
X191336453Y-105991703D01*
X191105470Y-106620430D01*
X191102984Y-106626669D01*
X190838304Y-107241961D01*
X190835484Y-107248056D01*
X190537879Y-107848122D01*
X190534733Y-107854055D01*
X190205084Y-108437116D01*
X190201622Y-108442870D01*
X189840895Y-109007223D01*
X189837126Y-109012782D01*
X189446346Y-109556818D01*
X189442282Y-109562164D01*
X189022661Y-110084195D01*
X189018314Y-110089314D01*
X188571005Y-110587909D01*
X188566386Y-110592784D01*
X188092784Y-111066386D01*
X188087909Y-111071005D01*
X187589314Y-111518314D01*
X187584195Y-111522661D01*
X187062164Y-111942282D01*
X187056818Y-111946346D01*
X186512782Y-112337126D01*
X186507223Y-112340895D01*
X185942870Y-112701622D01*
X185937116Y-112705084D01*
X185354055Y-113034733D01*
X185348122Y-113037879D01*
X184748056Y-113335484D01*
X184741961Y-113338304D01*
X184126669Y-113602984D01*
X184120430Y-113605470D01*
X183491703Y-113836453D01*
X183485339Y-113838597D01*
X182845046Y-114035197D01*
X182838575Y-114036994D01*
X182188549Y-114198648D01*
X182181990Y-114200091D01*
X181524208Y-114326309D01*
X181517581Y-114327396D01*
X180853896Y-114417820D01*
X180847220Y-114418546D01*
X180179631Y-114472906D01*
X180172925Y-114473270D01*
X179501661Y-114491455D01*
X179498303Y-114491500D01*
X120501698Y-114491500D01*
X120498340Y-114491455D01*
X119827075Y-114473270D01*
X119820369Y-114472906D01*
X119152780Y-114418546D01*
X119146104Y-114417820D01*
X118482419Y-114327396D01*
X118475792Y-114326309D01*
X117818010Y-114200091D01*
X117811451Y-114198648D01*
X117161425Y-114036994D01*
X117154954Y-114035197D01*
X116514661Y-113838597D01*
X116508297Y-113836453D01*
X115879570Y-113605470D01*
X115873331Y-113602984D01*
X115258039Y-113338305D01*
X115251944Y-113335485D01*
X114651878Y-113037879D01*
X114645964Y-113034744D01*
X114062860Y-112705072D01*
X114057130Y-112701623D01*
X113492776Y-112340895D01*
X113492751Y-112340878D01*
X113487216Y-112337126D01*
X113273271Y-112183450D01*
X112943194Y-111946355D01*
X112937848Y-111942291D01*
X112415805Y-111522662D01*
X112410686Y-111518315D01*
X111912091Y-111071005D01*
X111907216Y-111066386D01*
X111433614Y-110592784D01*
X111428995Y-110587909D01*
X110981685Y-110089314D01*
X110977338Y-110084195D01*
X110557709Y-109562152D01*
X110553645Y-109556806D01*
X110399664Y-109342439D01*
X110162867Y-109012776D01*
X110159126Y-109007258D01*
X109798372Y-108442863D01*
X109794915Y-108437116D01*
X109465266Y-107854055D01*
X109462120Y-107848122D01*
X109217881Y-107355659D01*
X109164510Y-107248046D01*
X109161695Y-107241961D01*
X109146890Y-107207544D01*
X108897010Y-106626657D01*
X108894529Y-106620430D01*
X108860498Y-106527799D01*
X108663540Y-105991686D01*
X108661408Y-105985356D01*
X108464797Y-105345030D01*
X108463009Y-105338592D01*
X108301349Y-104688540D01*
X108299908Y-104681990D01*
X108296636Y-104664936D01*
X108255393Y-104450000D01*
X111750000Y-104450000D01*
X112566314Y-104450000D01*
X112540507Y-104490156D01*
X112500000Y-104628111D01*
X112500000Y-104771889D01*
X112540507Y-104909844D01*
X112566314Y-104950000D01*
X111750001Y-104950000D01*
X111750001Y-105668588D01*
X111752794Y-105721191D01*
X111797237Y-105950987D01*
X111879879Y-106169975D01*
X111998339Y-106371841D01*
X111998344Y-106371848D01*
X112149211Y-106550786D01*
X112149213Y-106550788D01*
X112328151Y-106701655D01*
X112328158Y-106701660D01*
X112530024Y-106820120D01*
X112749012Y-106902762D01*
X112978809Y-106947205D01*
X113031382Y-106949998D01*
X113031421Y-106949999D01*
X113749999Y-106949999D01*
X113750000Y-106949998D01*
X113750000Y-105200000D01*
X114250000Y-105200000D01*
X114250000Y-106949999D01*
X114968576Y-106949999D01*
X114968588Y-106949998D01*
X115021191Y-106947205D01*
X115250987Y-106902762D01*
X115469975Y-106820120D01*
X115671841Y-106701660D01*
X115671848Y-106701655D01*
X115850786Y-106550788D01*
X115850788Y-106550786D01*
X116001655Y-106371848D01*
X116001660Y-106371841D01*
X116120120Y-106169975D01*
X116184265Y-106000000D01*
X127725001Y-106000000D01*
X127725001Y-106424986D01*
X127735494Y-106527697D01*
X127790641Y-106694119D01*
X127790643Y-106694124D01*
X127882684Y-106843345D01*
X128006654Y-106967315D01*
X128155875Y-107059356D01*
X128155880Y-107059358D01*
X128322302Y-107114505D01*
X128322309Y-107114506D01*
X128425019Y-107124999D01*
X128537499Y-107124999D01*
X128537500Y-107124998D01*
X128537500Y-106000000D01*
X129037500Y-106000000D01*
X129037500Y-107124999D01*
X129149972Y-107124999D01*
X129149986Y-107124998D01*
X129252697Y-107114505D01*
X129419119Y-107059358D01*
X129419124Y-107059356D01*
X129568345Y-106967315D01*
X129692315Y-106843345D01*
X129784356Y-106694124D01*
X129784358Y-106694119D01*
X129839505Y-106527697D01*
X129839506Y-106527690D01*
X129849999Y-106424986D01*
X129850000Y-106424973D01*
X129850000Y-106000000D01*
X129037500Y-106000000D01*
X128537500Y-106000000D01*
X127725001Y-106000000D01*
X116184265Y-106000000D01*
X116202762Y-105950987D01*
X116247205Y-105721191D01*
X116247205Y-105721190D01*
X116249998Y-105668617D01*
X116250000Y-105668578D01*
X116250000Y-105500000D01*
X127725000Y-105500000D01*
X128537500Y-105500000D01*
X128537500Y-104375000D01*
X129037500Y-104375000D01*
X129037500Y-105500000D01*
X129849999Y-105500000D01*
X129849999Y-105075028D01*
X129849998Y-105075013D01*
X129839505Y-104972302D01*
X129784358Y-104805880D01*
X129784356Y-104805875D01*
X129692315Y-104656654D01*
X129568345Y-104532684D01*
X129419124Y-104440643D01*
X129419119Y-104440641D01*
X129252697Y-104385494D01*
X129252690Y-104385493D01*
X129149986Y-104375000D01*
X129037500Y-104375000D01*
X128537500Y-104375000D01*
X128425027Y-104375000D01*
X128425012Y-104375001D01*
X128322302Y-104385494D01*
X128155880Y-104440641D01*
X128155875Y-104440643D01*
X128006654Y-104532684D01*
X127882684Y-104656654D01*
X127790643Y-104805875D01*
X127790641Y-104805880D01*
X127735494Y-104972302D01*
X127735493Y-104972309D01*
X127725000Y-105075013D01*
X127725000Y-105500000D01*
X116250000Y-105500000D01*
X116250000Y-104950000D01*
X115433686Y-104950000D01*
X115459493Y-104909844D01*
X115500000Y-104771889D01*
X115500000Y-104628111D01*
X115459493Y-104490156D01*
X115433686Y-104450000D01*
X116249999Y-104450000D01*
X116249999Y-103731423D01*
X116249998Y-103731411D01*
X116247205Y-103678808D01*
X116202762Y-103449012D01*
X116120120Y-103230024D01*
X116001660Y-103028158D01*
X116001655Y-103028151D01*
X115850788Y-102849213D01*
X115850786Y-102849211D01*
X115671848Y-102698344D01*
X115671841Y-102698339D01*
X115469975Y-102579879D01*
X115250984Y-102497236D01*
X115245840Y-102496241D01*
X115183760Y-102464180D01*
X115148869Y-102403646D01*
X115152244Y-102333858D01*
X115192814Y-102276973D01*
X115257697Y-102251052D01*
X115269374Y-102250499D01*
X118797872Y-102250499D01*
X118857483Y-102244091D01*
X118992331Y-102193796D01*
X119107546Y-102107546D01*
X119193796Y-101992331D01*
X119244091Y-101857483D01*
X119250500Y-101797873D01*
X119250500Y-101000000D01*
X128750001Y-101000000D01*
X128750001Y-101048322D01*
X128760144Y-101147607D01*
X128813452Y-101308481D01*
X128813457Y-101308492D01*
X128902424Y-101452728D01*
X128902427Y-101452732D01*
X129022267Y-101572572D01*
X129022271Y-101572575D01*
X129166507Y-101661542D01*
X129166518Y-101661547D01*
X129327393Y-101714855D01*
X129426683Y-101724999D01*
X129450000Y-101724998D01*
X129450000Y-101000000D01*
X128750001Y-101000000D01*
X119250500Y-101000000D01*
X119250500Y-100500000D01*
X128750000Y-100500000D01*
X129450000Y-100500000D01*
X129450000Y-99774999D01*
X129426693Y-99775000D01*
X129426674Y-99775001D01*
X129327392Y-99785144D01*
X129166518Y-99838452D01*
X129166507Y-99838457D01*
X129022271Y-99927424D01*
X129022267Y-99927427D01*
X128902427Y-100047267D01*
X128902424Y-100047271D01*
X128813457Y-100191507D01*
X128813452Y-100191518D01*
X128760144Y-100352393D01*
X128750000Y-100451677D01*
X128750000Y-100500000D01*
X119250500Y-100500000D01*
X119250499Y-98750000D01*
X126594540Y-98750000D01*
X126614326Y-98938256D01*
X126614327Y-98938259D01*
X126672818Y-99118277D01*
X126672821Y-99118284D01*
X126767467Y-99282216D01*
X126876984Y-99403847D01*
X126894129Y-99422888D01*
X127047265Y-99534148D01*
X127047270Y-99534151D01*
X127220192Y-99611142D01*
X127220197Y-99611144D01*
X127405354Y-99650500D01*
X127405355Y-99650500D01*
X127594644Y-99650500D01*
X127594646Y-99650500D01*
X127779803Y-99611144D01*
X127952730Y-99534151D01*
X128105871Y-99422888D01*
X128232533Y-99282216D01*
X128327179Y-99118284D01*
X128385674Y-98938256D01*
X128405460Y-98750000D01*
X128405459Y-98749998D01*
X128406139Y-98743537D01*
X128407748Y-98743706D01*
X128425145Y-98684461D01*
X128477949Y-98638706D01*
X128529460Y-98627500D01*
X128666726Y-98627500D01*
X128733765Y-98647185D01*
X128779520Y-98699989D01*
X128784430Y-98712491D01*
X128811826Y-98795168D01*
X128812995Y-98798695D01*
X128813000Y-98798706D01*
X128902028Y-98943041D01*
X128902031Y-98943045D01*
X129021954Y-99062968D01*
X129021958Y-99062971D01*
X129166293Y-99151999D01*
X129166296Y-99152000D01*
X129166302Y-99152004D01*
X129327291Y-99205350D01*
X129426654Y-99215501D01*
X129973343Y-99215500D01*
X129973351Y-99215499D01*
X129973354Y-99215499D01*
X130027759Y-99209941D01*
X130072707Y-99205350D01*
X130233696Y-99152004D01*
X130378043Y-99062969D01*
X130387318Y-99053694D01*
X130448641Y-99020209D01*
X130518333Y-99025193D01*
X130562680Y-99053694D01*
X130571955Y-99062969D01*
X130571961Y-99062972D01*
X130575404Y-99065695D01*
X130615784Y-99122715D01*
X130622499Y-99162966D01*
X130622499Y-99827034D01*
X130602814Y-99894073D01*
X130575416Y-99924295D01*
X130571957Y-99927029D01*
X130562324Y-99936663D01*
X130501000Y-99970146D01*
X130431308Y-99965159D01*
X130386965Y-99936660D01*
X130377732Y-99927427D01*
X130377728Y-99927424D01*
X130233492Y-99838457D01*
X130233481Y-99838452D01*
X130072606Y-99785144D01*
X129973322Y-99775000D01*
X129950000Y-99775000D01*
X129950000Y-101724999D01*
X129973308Y-101724999D01*
X129973322Y-101724998D01*
X130072607Y-101714855D01*
X130233481Y-101661547D01*
X130233492Y-101661542D01*
X130377731Y-101572573D01*
X130386959Y-101563345D01*
X130448279Y-101529856D01*
X130517971Y-101534835D01*
X130562327Y-101563339D01*
X130571955Y-101572967D01*
X130571959Y-101572970D01*
X130716294Y-101661998D01*
X130716297Y-101661999D01*
X130716303Y-101662003D01*
X130877292Y-101715349D01*
X130976655Y-101725500D01*
X131337719Y-101725499D01*
X131404757Y-101745183D01*
X131450512Y-101797987D01*
X131460456Y-101867146D01*
X131431431Y-101930701D01*
X131425399Y-101937180D01*
X131327453Y-102035126D01*
X131315169Y-102044969D01*
X131315349Y-102045187D01*
X131309337Y-102050160D01*
X131263146Y-102099347D01*
X131260441Y-102102138D01*
X131240879Y-102121700D01*
X131240875Y-102121705D01*
X131238395Y-102124903D01*
X131230817Y-102133774D01*
X131200808Y-102165730D01*
X131200805Y-102165734D01*
X131191106Y-102183377D01*
X131180428Y-102199633D01*
X131168094Y-102215534D01*
X131168089Y-102215542D01*
X131150685Y-102255762D01*
X131145546Y-102266252D01*
X131124427Y-102304667D01*
X131119420Y-102324168D01*
X131113121Y-102342564D01*
X131108289Y-102353733D01*
X131105125Y-102361044D01*
X131105124Y-102361046D01*
X131098269Y-102404331D01*
X131095901Y-102415767D01*
X131085000Y-102458223D01*
X131085000Y-102478358D01*
X131083473Y-102497757D01*
X131080325Y-102517631D01*
X131084450Y-102561267D01*
X131085000Y-102572937D01*
X131085000Y-104368306D01*
X131065315Y-104435345D01*
X131026096Y-104473845D01*
X130931344Y-104532287D01*
X130807289Y-104656342D01*
X130715187Y-104805663D01*
X130715185Y-104805668D01*
X130708459Y-104825967D01*
X130660001Y-104972203D01*
X130660001Y-104972204D01*
X130660000Y-104972204D01*
X130649500Y-105074983D01*
X130649500Y-106425001D01*
X130649501Y-106425018D01*
X130660000Y-106527796D01*
X130660001Y-106527799D01*
X130715185Y-106694331D01*
X130715187Y-106694336D01*
X130750069Y-106750888D01*
X130807288Y-106843656D01*
X130931344Y-106967712D01*
X131080666Y-107059814D01*
X131247203Y-107114999D01*
X131349991Y-107125500D01*
X132075008Y-107125499D01*
X132075016Y-107125498D01*
X132075019Y-107125498D01*
X132131302Y-107119748D01*
X132177797Y-107114999D01*
X132344334Y-107059814D01*
X132378901Y-107038493D01*
X132397598Y-107026961D01*
X132462694Y-107008500D01*
X147298842Y-107008500D01*
X147365881Y-107028185D01*
X147411636Y-107080989D01*
X147415026Y-107089172D01*
X147416204Y-107092331D01*
X147416206Y-107092335D01*
X147502452Y-107207544D01*
X147502455Y-107207547D01*
X147617664Y-107293793D01*
X147617671Y-107293797D01*
X147752517Y-107344091D01*
X147752516Y-107344091D01*
X147759444Y-107344835D01*
X147812127Y-107350500D01*
X149607872Y-107350499D01*
X149667483Y-107344091D01*
X149802331Y-107293796D01*
X149917546Y-107207546D01*
X150003796Y-107092331D01*
X150052810Y-106960916D01*
X150094681Y-106904984D01*
X150160145Y-106880566D01*
X150228418Y-106895417D01*
X150256673Y-106916569D01*
X150378599Y-107038495D01*
X150475384Y-107106265D01*
X150572165Y-107174032D01*
X150572167Y-107174033D01*
X150572170Y-107174035D01*
X150786337Y-107273903D01*
X151014592Y-107335063D01*
X151191034Y-107350500D01*
X151249999Y-107355659D01*
X151250000Y-107355659D01*
X151250001Y-107355659D01*
X151308966Y-107350500D01*
X151485408Y-107335063D01*
X151713663Y-107273903D01*
X151927830Y-107174035D01*
X152121401Y-107038495D01*
X152288495Y-106871401D01*
X152424035Y-106677830D01*
X152523903Y-106463663D01*
X152585063Y-106235408D01*
X152605659Y-106000000D01*
X152585063Y-105764592D01*
X152523903Y-105536337D01*
X152424035Y-105322171D01*
X152338491Y-105200000D01*
X152288494Y-105128597D01*
X152121402Y-104961506D01*
X152121395Y-104961501D01*
X151927834Y-104825967D01*
X151927830Y-104825965D01*
X151927828Y-104825964D01*
X151713663Y-104726097D01*
X151713659Y-104726096D01*
X151713655Y-104726094D01*
X151485413Y-104664938D01*
X151485403Y-104664936D01*
X151250001Y-104644341D01*
X151249999Y-104644341D01*
X151014596Y-104664936D01*
X151014586Y-104664938D01*
X150786344Y-104726094D01*
X150786335Y-104726098D01*
X150572171Y-104825964D01*
X150572169Y-104825965D01*
X150378600Y-104961503D01*
X150256673Y-105083430D01*
X150195350Y-105116914D01*
X150125658Y-105111930D01*
X150069725Y-105070058D01*
X150052810Y-105039081D01*
X150003797Y-104907671D01*
X150003793Y-104907664D01*
X149917547Y-104792455D01*
X149917544Y-104792452D01*
X149802335Y-104706206D01*
X149802328Y-104706202D01*
X149667482Y-104655908D01*
X149667483Y-104655908D01*
X149607883Y-104649501D01*
X149607881Y-104649500D01*
X149607873Y-104649500D01*
X149607864Y-104649500D01*
X147812129Y-104649500D01*
X147812123Y-104649501D01*
X147752516Y-104655908D01*
X147617671Y-104706202D01*
X147617664Y-104706206D01*
X147502455Y-104792452D01*
X147502452Y-104792455D01*
X147416206Y-104907664D01*
X147416204Y-104907668D01*
X147415026Y-104910828D01*
X147413003Y-104913529D01*
X147411953Y-104915454D01*
X147411676Y-104915302D01*
X147373157Y-104966764D01*
X147307694Y-104991184D01*
X147298842Y-104991500D01*
X132860934Y-104991500D01*
X132793895Y-104971815D01*
X132748140Y-104919011D01*
X132743228Y-104906504D01*
X132709814Y-104805666D01*
X132617712Y-104656344D01*
X132493656Y-104532288D01*
X132493655Y-104532287D01*
X132398904Y-104473845D01*
X132352179Y-104421897D01*
X132340000Y-104368306D01*
X132340000Y-102848780D01*
X132359685Y-102781741D01*
X132376314Y-102761104D01*
X133387417Y-101750000D01*
X165250001Y-101750000D01*
X165250001Y-101798322D01*
X165260144Y-101897607D01*
X165313452Y-102058481D01*
X165313457Y-102058492D01*
X165402424Y-102202728D01*
X165402427Y-102202732D01*
X165522267Y-102322572D01*
X165522271Y-102322575D01*
X165666507Y-102411542D01*
X165666518Y-102411547D01*
X165827393Y-102464855D01*
X165926683Y-102474999D01*
X165950000Y-102474998D01*
X165950000Y-101750000D01*
X165250001Y-101750000D01*
X133387417Y-101750000D01*
X133888196Y-101249221D01*
X133949515Y-101215739D01*
X134019206Y-101220723D01*
X134050185Y-101237639D01*
X134107910Y-101280852D01*
X134107913Y-101280854D01*
X134242620Y-101331096D01*
X134242627Y-101331098D01*
X134302155Y-101337499D01*
X134302172Y-101337500D01*
X134450000Y-101337500D01*
X134450000Y-100961999D01*
X134469685Y-100894960D01*
X134522489Y-100849205D01*
X134573997Y-100837999D01*
X134626001Y-100837999D01*
X134693039Y-100857684D01*
X134738794Y-100910488D01*
X134750000Y-100961999D01*
X134750000Y-101337500D01*
X134897828Y-101337500D01*
X134897844Y-101337499D01*
X134957372Y-101331098D01*
X134957379Y-101331096D01*
X134986279Y-101320318D01*
X135029612Y-101312500D01*
X135250000Y-101312500D01*
X135250000Y-100885370D01*
X135649500Y-100885370D01*
X135649501Y-100885376D01*
X135655908Y-100944983D01*
X135700373Y-101064197D01*
X135706204Y-101079831D01*
X135723094Y-101102393D01*
X135725266Y-101105294D01*
X135749684Y-101170758D01*
X135750000Y-101179606D01*
X135750000Y-101312500D01*
X135968959Y-101312500D01*
X136012292Y-101320318D01*
X136042517Y-101331591D01*
X136102127Y-101338000D01*
X136697872Y-101337999D01*
X136757483Y-101331591D01*
X136892331Y-101281296D01*
X136934137Y-101250000D01*
X165250000Y-101250000D01*
X165950000Y-101250000D01*
X165950000Y-100524999D01*
X165926693Y-100525000D01*
X165926674Y-100525001D01*
X165827392Y-100535144D01*
X165666518Y-100588452D01*
X165666507Y-100588457D01*
X165522271Y-100677424D01*
X165522267Y-100677427D01*
X165402427Y-100797267D01*
X165402424Y-100797271D01*
X165313457Y-100941507D01*
X165313452Y-100941518D01*
X165260144Y-101102393D01*
X165250000Y-101201677D01*
X165250000Y-101250000D01*
X136934137Y-101250000D01*
X137007546Y-101195046D01*
X137093796Y-101079831D01*
X137144091Y-100944983D01*
X137150500Y-100885373D01*
X137150499Y-100489628D01*
X137150499Y-100489627D01*
X137150498Y-100489611D01*
X137146320Y-100450753D01*
X137146320Y-100424245D01*
X137150500Y-100385373D01*
X137150499Y-99989628D01*
X137150499Y-99989627D01*
X137150498Y-99989613D01*
X137146665Y-99953964D01*
X137159069Y-99885204D01*
X137206679Y-99834066D01*
X137266058Y-99816768D01*
X137316009Y-99815199D01*
X137320421Y-99815061D01*
X137324313Y-99815000D01*
X137351972Y-99815000D01*
X137351976Y-99815000D01*
X137355974Y-99814494D01*
X137367614Y-99813577D01*
X137411443Y-99812201D01*
X137430772Y-99806584D01*
X137449828Y-99802637D01*
X137469793Y-99800116D01*
X137510555Y-99783976D01*
X137521592Y-99780198D01*
X137563691Y-99767968D01*
X137581015Y-99757721D01*
X137598483Y-99749163D01*
X137617203Y-99741753D01*
X137652677Y-99715978D01*
X137662415Y-99709581D01*
X137700156Y-99687263D01*
X137714397Y-99673020D01*
X137729178Y-99660397D01*
X137745467Y-99648563D01*
X137773404Y-99614790D01*
X137781246Y-99606171D01*
X137950601Y-99436817D01*
X138011924Y-99403334D01*
X138038281Y-99400500D01*
X138094644Y-99400500D01*
X138094646Y-99400500D01*
X138279803Y-99361144D01*
X138452730Y-99284151D01*
X138605871Y-99172888D01*
X138732533Y-99032216D01*
X138827179Y-98868284D01*
X138885674Y-98688256D01*
X138905460Y-98500000D01*
X138885674Y-98311744D01*
X138827179Y-98131716D01*
X138732533Y-97967784D01*
X138605871Y-97827112D01*
X138605870Y-97827111D01*
X138452734Y-97715851D01*
X138452729Y-97715848D01*
X138279807Y-97638857D01*
X138279802Y-97638855D01*
X138134001Y-97607865D01*
X138094646Y-97599500D01*
X137905354Y-97599500D01*
X137872897Y-97606398D01*
X137720197Y-97638855D01*
X137720192Y-97638857D01*
X137547270Y-97715848D01*
X137547265Y-97715851D01*
X137394129Y-97827111D01*
X137267466Y-97967785D01*
X137172821Y-98131715D01*
X137172818Y-98131722D01*
X137114327Y-98311740D01*
X137114326Y-98311744D01*
X137099904Y-98448963D01*
X137073321Y-98513576D01*
X137016023Y-98553561D01*
X136976584Y-98560000D01*
X136824338Y-98560000D01*
X136781005Y-98552182D01*
X136757486Y-98543410D01*
X136757485Y-98543409D01*
X136757483Y-98543409D01*
X136697873Y-98537000D01*
X136697863Y-98537000D01*
X136102129Y-98537000D01*
X136102123Y-98537001D01*
X136042516Y-98543408D01*
X136012292Y-98554682D01*
X135968959Y-98562500D01*
X135750000Y-98562500D01*
X135750000Y-98695393D01*
X135730315Y-98762432D01*
X135725267Y-98769704D01*
X135706204Y-98795168D01*
X135706202Y-98795171D01*
X135655910Y-98930013D01*
X135655909Y-98930017D01*
X135649500Y-98989627D01*
X135649500Y-98989634D01*
X135649500Y-98989635D01*
X135649500Y-99385369D01*
X135649501Y-99385378D01*
X135653679Y-99424245D01*
X135653679Y-99450750D01*
X135649500Y-99489622D01*
X135649500Y-99885369D01*
X135649501Y-99885378D01*
X135653679Y-99924245D01*
X135653679Y-99950750D01*
X135649500Y-99989622D01*
X135649500Y-100385369D01*
X135649501Y-100385378D01*
X135653679Y-100424245D01*
X135653679Y-100450750D01*
X135649500Y-100489622D01*
X135649500Y-100885370D01*
X135250000Y-100885370D01*
X135250000Y-100679606D01*
X135269685Y-100612567D01*
X135274734Y-100605294D01*
X135293796Y-100579831D01*
X135344091Y-100444983D01*
X135350500Y-100385373D01*
X135350499Y-99989628D01*
X135350499Y-99989627D01*
X135350498Y-99989611D01*
X135346320Y-99950753D01*
X135346320Y-99924245D01*
X135350500Y-99885373D01*
X135350499Y-99489628D01*
X135350499Y-99489627D01*
X135350498Y-99489611D01*
X135346320Y-99450753D01*
X135346320Y-99424245D01*
X135350500Y-99385373D01*
X135350499Y-98989628D01*
X135344977Y-98938256D01*
X135344091Y-98930016D01*
X135293797Y-98795171D01*
X135293795Y-98795168D01*
X135274733Y-98769704D01*
X135250316Y-98704239D01*
X135250000Y-98695393D01*
X135250000Y-98562500D01*
X135031041Y-98562500D01*
X134987708Y-98554682D01*
X134957482Y-98543408D01*
X134957483Y-98543408D01*
X134897883Y-98537001D01*
X134897881Y-98537000D01*
X134897873Y-98537000D01*
X134897865Y-98537000D01*
X134822778Y-98537000D01*
X134763041Y-98521662D01*
X134745338Y-98511929D01*
X134745328Y-98511926D01*
X134725834Y-98506920D01*
X134707433Y-98500620D01*
X134688959Y-98492626D01*
X134688953Y-98492624D01*
X134675380Y-98490475D01*
X134612246Y-98460546D01*
X134575314Y-98401235D01*
X134576312Y-98331372D01*
X134607095Y-98280323D01*
X135723600Y-97163819D01*
X135784923Y-97130334D01*
X135811281Y-97127500D01*
X163613719Y-97127500D01*
X163680758Y-97147185D01*
X163701400Y-97163819D01*
X165188181Y-98650600D01*
X165221666Y-98711923D01*
X165224500Y-98738281D01*
X165224500Y-99048336D01*
X165224501Y-99048355D01*
X165234650Y-99147707D01*
X165234651Y-99147710D01*
X165287996Y-99308694D01*
X165288001Y-99308705D01*
X165377029Y-99453040D01*
X165377032Y-99453044D01*
X165496955Y-99572967D01*
X165496959Y-99572970D01*
X165641294Y-99661998D01*
X165641297Y-99661999D01*
X165641303Y-99662003D01*
X165802292Y-99715349D01*
X165901655Y-99725500D01*
X166448344Y-99725499D01*
X166448352Y-99725498D01*
X166448355Y-99725498D01*
X166523273Y-99717845D01*
X166547708Y-99715349D01*
X166708697Y-99662003D01*
X166853044Y-99572968D01*
X166853051Y-99572960D01*
X166858085Y-99568981D01*
X166922879Y-99542838D01*
X166991522Y-99555875D01*
X167042219Y-99603954D01*
X167059000Y-99666244D01*
X167059000Y-100567059D01*
X167039315Y-100634098D01*
X166986511Y-100679853D01*
X166917353Y-100689797D01*
X166869903Y-100672597D01*
X166733492Y-100588457D01*
X166733481Y-100588452D01*
X166572606Y-100535144D01*
X166473322Y-100525000D01*
X166450000Y-100525000D01*
X166450000Y-102474999D01*
X166473308Y-102474999D01*
X166473322Y-102474998D01*
X166572607Y-102464855D01*
X166733481Y-102411547D01*
X166733492Y-102411542D01*
X166877731Y-102322573D01*
X166886959Y-102313345D01*
X166948279Y-102279856D01*
X167017971Y-102284835D01*
X167062327Y-102313339D01*
X167071955Y-102322967D01*
X167071959Y-102322970D01*
X167216294Y-102411998D01*
X167216297Y-102411999D01*
X167216303Y-102412003D01*
X167377292Y-102465349D01*
X167476655Y-102475500D01*
X168023344Y-102475499D01*
X168023352Y-102475498D01*
X168023355Y-102475498D01*
X168077760Y-102469940D01*
X168122708Y-102465349D01*
X168283697Y-102412003D01*
X168428044Y-102322968D01*
X168547968Y-102203044D01*
X168637003Y-102058697D01*
X168690349Y-101897708D01*
X168700500Y-101798345D01*
X168700499Y-101578083D01*
X168720183Y-101511044D01*
X168736813Y-101490407D01*
X169027219Y-101200001D01*
X171952704Y-101200001D01*
X171952899Y-101202486D01*
X171998718Y-101360198D01*
X172082314Y-101501552D01*
X172082321Y-101501561D01*
X172198438Y-101617678D01*
X172198447Y-101617685D01*
X172339803Y-101701282D01*
X172339806Y-101701283D01*
X172497504Y-101747099D01*
X172497510Y-101747100D01*
X172534350Y-101749999D01*
X172534366Y-101750000D01*
X172862500Y-101750000D01*
X172862500Y-101200000D01*
X173362500Y-101200000D01*
X173362500Y-101750000D01*
X173690634Y-101750000D01*
X173690649Y-101749999D01*
X173727489Y-101747100D01*
X173727495Y-101747099D01*
X173885193Y-101701283D01*
X173885196Y-101701282D01*
X174026552Y-101617685D01*
X174026561Y-101617678D01*
X174142678Y-101501561D01*
X174142685Y-101501552D01*
X174226281Y-101360198D01*
X174272100Y-101202486D01*
X174272295Y-101200001D01*
X174272295Y-101200000D01*
X173362500Y-101200000D01*
X172862500Y-101200000D01*
X171952705Y-101200000D01*
X171952704Y-101200001D01*
X169027219Y-101200001D01*
X169527223Y-100699998D01*
X171952704Y-100699998D01*
X171952705Y-100700000D01*
X172862500Y-100700000D01*
X172862500Y-100150000D01*
X172534350Y-100150000D01*
X172497510Y-100152899D01*
X172497504Y-100152900D01*
X172339806Y-100198716D01*
X172339803Y-100198717D01*
X172198447Y-100282314D01*
X172198438Y-100282321D01*
X172082321Y-100398438D01*
X172082314Y-100398447D01*
X171998718Y-100539801D01*
X171952899Y-100697513D01*
X171952704Y-100699998D01*
X169527223Y-100699998D01*
X170449903Y-99777319D01*
X170511226Y-99743834D01*
X170537584Y-99741000D01*
X172202967Y-99741000D01*
X172266087Y-99758267D01*
X172339602Y-99801744D01*
X172356265Y-99806585D01*
X172497426Y-99847597D01*
X172497429Y-99847597D01*
X172497431Y-99847598D01*
X172534306Y-99850500D01*
X172534314Y-99850500D01*
X173690686Y-99850500D01*
X173690694Y-99850500D01*
X173727569Y-99847598D01*
X173727571Y-99847597D01*
X173727573Y-99847597D01*
X173798350Y-99827034D01*
X173885398Y-99801744D01*
X174014322Y-99725499D01*
X174033580Y-99714110D01*
X174034655Y-99715928D01*
X174089532Y-99694381D01*
X174158050Y-99708059D01*
X174208296Y-99756609D01*
X174224500Y-99817895D01*
X174224500Y-100182742D01*
X174204815Y-100249781D01*
X174152011Y-100295536D01*
X174082853Y-100305480D01*
X174034142Y-100284814D01*
X174033271Y-100286288D01*
X173885196Y-100198717D01*
X173885193Y-100198716D01*
X173727495Y-100152900D01*
X173727489Y-100152899D01*
X173690649Y-100150000D01*
X173362500Y-100150000D01*
X173362500Y-100700000D01*
X174272294Y-100700000D01*
X174296557Y-100673752D01*
X174356518Y-100637885D01*
X174426352Y-100640129D01*
X174466012Y-100664530D01*
X174466969Y-100663298D01*
X174473132Y-100668078D01*
X174473135Y-100668081D01*
X174614602Y-100751744D01*
X174656224Y-100763836D01*
X174772426Y-100797597D01*
X174772429Y-100797597D01*
X174772431Y-100797598D01*
X174809306Y-100800500D01*
X175159416Y-100800500D01*
X175226455Y-100820185D01*
X175247097Y-100836819D01*
X175631479Y-101221201D01*
X175636599Y-101226639D01*
X175657295Y-101250000D01*
X175675917Y-101271020D01*
X175724714Y-101304703D01*
X175730733Y-101309132D01*
X175777394Y-101345688D01*
X175786365Y-101349725D01*
X175805920Y-101360754D01*
X175814018Y-101366344D01*
X175869442Y-101387363D01*
X175876340Y-101390220D01*
X175930415Y-101414557D01*
X175940096Y-101416331D01*
X175961718Y-101422359D01*
X175970918Y-101425848D01*
X176029768Y-101432993D01*
X176037136Y-101434114D01*
X176095472Y-101444805D01*
X176154639Y-101441226D01*
X176162126Y-101441000D01*
X184725501Y-101441000D01*
X184792540Y-101460685D01*
X184838295Y-101513489D01*
X184849501Y-101565000D01*
X184849501Y-102222875D01*
X184855908Y-102282482D01*
X184906202Y-102417327D01*
X184906206Y-102417334D01*
X184992452Y-102532543D01*
X184992455Y-102532546D01*
X185107664Y-102618792D01*
X185107671Y-102618796D01*
X185242517Y-102669090D01*
X185242516Y-102669090D01*
X185249444Y-102669834D01*
X185302127Y-102675499D01*
X187197872Y-102675498D01*
X187257483Y-102669090D01*
X187392331Y-102618795D01*
X187507546Y-102532545D01*
X187593796Y-102417330D01*
X187644091Y-102282482D01*
X187650500Y-102222872D01*
X187650499Y-100327127D01*
X187644091Y-100267516D01*
X187637476Y-100249781D01*
X187593797Y-100132670D01*
X187593793Y-100132663D01*
X187507547Y-100017454D01*
X187507544Y-100017451D01*
X187392335Y-99931205D01*
X187392328Y-99931201D01*
X187312094Y-99901276D01*
X187256160Y-99859405D01*
X187231743Y-99793940D01*
X187246595Y-99725667D01*
X187264190Y-99701120D01*
X187358979Y-99598152D01*
X187485924Y-99403848D01*
X187579157Y-99191299D01*
X187636134Y-98966304D01*
X187636158Y-98966013D01*
X187655300Y-98735005D01*
X187655300Y-98734992D01*
X187636135Y-98503701D01*
X187636133Y-98503690D01*
X187579157Y-98278698D01*
X187485924Y-98066150D01*
X187358983Y-97871851D01*
X187358980Y-97871848D01*
X187358979Y-97871846D01*
X187201784Y-97701086D01*
X187201779Y-97701082D01*
X187201777Y-97701080D01*
X187018634Y-97558534D01*
X187018628Y-97558530D01*
X186814504Y-97448063D01*
X186814495Y-97448060D01*
X186594984Y-97372701D01*
X186423282Y-97344049D01*
X186366049Y-97334499D01*
X186133951Y-97334499D01*
X186034962Y-97351017D01*
X185933615Y-97367929D01*
X185864249Y-97359547D01*
X185825524Y-97333301D01*
X183021028Y-94528805D01*
X183015894Y-94523351D01*
X182976584Y-94478980D01*
X182927793Y-94445302D01*
X182921761Y-94440863D01*
X182875109Y-94404314D01*
X182875100Y-94404308D01*
X182866135Y-94400274D01*
X182846587Y-94389250D01*
X182838483Y-94383656D01*
X182838479Y-94383653D01*
X182783062Y-94362636D01*
X182776145Y-94359772D01*
X182722082Y-94335441D01*
X182722083Y-94335441D01*
X182712396Y-94333666D01*
X182690793Y-94327644D01*
X182681583Y-94324152D01*
X182622736Y-94317006D01*
X182615334Y-94315879D01*
X182557031Y-94305195D01*
X182557026Y-94305195D01*
X182497862Y-94308774D01*
X182490375Y-94309000D01*
X181636375Y-94309000D01*
X181569336Y-94289315D01*
X181548694Y-94272682D01*
X181453044Y-94177032D01*
X181453041Y-94177030D01*
X181453040Y-94177029D01*
X181308705Y-94088001D01*
X181308699Y-94087998D01*
X181308697Y-94087997D01*
X181308694Y-94087996D01*
X181147709Y-94034651D01*
X181048346Y-94024500D01*
X180501662Y-94024500D01*
X180501644Y-94024501D01*
X180402292Y-94034650D01*
X180402289Y-94034651D01*
X180241305Y-94087996D01*
X180241294Y-94088001D01*
X180096959Y-94177029D01*
X180096955Y-94177032D01*
X180087681Y-94186307D01*
X180026358Y-94219792D01*
X179956666Y-94214808D01*
X179912319Y-94186307D01*
X179903044Y-94177032D01*
X179903040Y-94177029D01*
X179758705Y-94088001D01*
X179758699Y-94087998D01*
X179758697Y-94087997D01*
X179758694Y-94087996D01*
X179597709Y-94034651D01*
X179498346Y-94024500D01*
X178951662Y-94024500D01*
X178951644Y-94024501D01*
X178852292Y-94034650D01*
X178852289Y-94034651D01*
X178691305Y-94087996D01*
X178691294Y-94088001D01*
X178546959Y-94177029D01*
X178451306Y-94272682D01*
X178389982Y-94306166D01*
X178363625Y-94309000D01*
X177621232Y-94309000D01*
X177554193Y-94289315D01*
X177548347Y-94285318D01*
X177452734Y-94215851D01*
X177452729Y-94215848D01*
X177279807Y-94138857D01*
X177279802Y-94138855D01*
X177134001Y-94107865D01*
X177094646Y-94099500D01*
X176905354Y-94099500D01*
X176872897Y-94106398D01*
X176720197Y-94138855D01*
X176720192Y-94138857D01*
X176547270Y-94215848D01*
X176547265Y-94215851D01*
X176394129Y-94327111D01*
X176267466Y-94467785D01*
X176172821Y-94631715D01*
X176172818Y-94631722D01*
X176114327Y-94811740D01*
X176114326Y-94811744D01*
X176094540Y-95000000D01*
X176114326Y-95188256D01*
X176114327Y-95188259D01*
X176172818Y-95368277D01*
X176172821Y-95368284D01*
X176267467Y-95532216D01*
X176394129Y-95672888D01*
X176547265Y-95784148D01*
X176547270Y-95784151D01*
X176720192Y-95861142D01*
X176720197Y-95861144D01*
X176905354Y-95900500D01*
X176905355Y-95900500D01*
X177094644Y-95900500D01*
X177094646Y-95900500D01*
X177279803Y-95861144D01*
X177452730Y-95784151D01*
X177530953Y-95727319D01*
X177548347Y-95714682D01*
X177614153Y-95691202D01*
X177621232Y-95691000D01*
X178363625Y-95691000D01*
X178430664Y-95710685D01*
X178451306Y-95727318D01*
X178546956Y-95822968D01*
X178546958Y-95822969D01*
X178546959Y-95822970D01*
X178691294Y-95911998D01*
X178691297Y-95911999D01*
X178691303Y-95912003D01*
X178852292Y-95965349D01*
X178951655Y-95975500D01*
X179498344Y-95975499D01*
X179498352Y-95975498D01*
X179498355Y-95975498D01*
X179552760Y-95969940D01*
X179597708Y-95965349D01*
X179758697Y-95912003D01*
X179903044Y-95822968D01*
X179912319Y-95813693D01*
X179973642Y-95780208D01*
X180043334Y-95785192D01*
X180087681Y-95813693D01*
X180096955Y-95822967D01*
X180096959Y-95822970D01*
X180241294Y-95911998D01*
X180241297Y-95911999D01*
X180241303Y-95912003D01*
X180402292Y-95965349D01*
X180501655Y-95975500D01*
X181048344Y-95975499D01*
X181048352Y-95975498D01*
X181048355Y-95975498D01*
X181102760Y-95969940D01*
X181147708Y-95965349D01*
X181308697Y-95912003D01*
X181453044Y-95822968D01*
X181548694Y-95727318D01*
X181610018Y-95693834D01*
X181636375Y-95691000D01*
X182177417Y-95691000D01*
X182244456Y-95710685D01*
X182265098Y-95727319D01*
X184849933Y-98312154D01*
X184883418Y-98373477D01*
X184882458Y-98430275D01*
X184863865Y-98503697D01*
X184844700Y-98734992D01*
X184844700Y-98735005D01*
X184863864Y-98966296D01*
X184863866Y-98966307D01*
X184920842Y-99191299D01*
X185014075Y-99403847D01*
X185141016Y-99598146D01*
X185141019Y-99598150D01*
X185141021Y-99598152D01*
X185235803Y-99701113D01*
X185266724Y-99763766D01*
X185258864Y-99833192D01*
X185214716Y-99887347D01*
X185187906Y-99901276D01*
X185107669Y-99931202D01*
X185107664Y-99931205D01*
X184992455Y-100017451D01*
X184987226Y-100022681D01*
X184925903Y-100056166D01*
X184899545Y-100059000D01*
X176674500Y-100059000D01*
X176607461Y-100039315D01*
X176561706Y-99986511D01*
X176550500Y-99935000D01*
X176550500Y-99784313D01*
X176550499Y-99784298D01*
X176550487Y-99784151D01*
X176547598Y-99747431D01*
X176545948Y-99741753D01*
X176501745Y-99589606D01*
X176501744Y-99589603D01*
X176501744Y-99589602D01*
X176418081Y-99448135D01*
X176418079Y-99448133D01*
X176418076Y-99448129D01*
X176301870Y-99331923D01*
X176301862Y-99331917D01*
X176160396Y-99248255D01*
X176160393Y-99248254D01*
X176002573Y-99202402D01*
X176002567Y-99202401D01*
X175965701Y-99199500D01*
X175965694Y-99199500D01*
X174809306Y-99199500D01*
X174809298Y-99199500D01*
X174772432Y-99202401D01*
X174772426Y-99202402D01*
X174614606Y-99248254D01*
X174614603Y-99248255D01*
X174466420Y-99335890D01*
X174465345Y-99334073D01*
X174410448Y-99355620D01*
X174341932Y-99341931D01*
X174291694Y-99293373D01*
X174275500Y-99232104D01*
X174275500Y-98834313D01*
X174275499Y-98834298D01*
X174272598Y-98797432D01*
X174272597Y-98797426D01*
X174226745Y-98639606D01*
X174226744Y-98639603D01*
X174226744Y-98639602D01*
X174143081Y-98498135D01*
X174143079Y-98498133D01*
X174143076Y-98498129D01*
X174026870Y-98381923D01*
X174026862Y-98381917D01*
X173885396Y-98298255D01*
X173885393Y-98298254D01*
X173727573Y-98252402D01*
X173727567Y-98252401D01*
X173690701Y-98249500D01*
X173690694Y-98249500D01*
X172534306Y-98249500D01*
X172534298Y-98249500D01*
X172497432Y-98252401D01*
X172497426Y-98252402D01*
X172339606Y-98298254D01*
X172339603Y-98298255D01*
X172266088Y-98341732D01*
X172202967Y-98359000D01*
X170224626Y-98359000D01*
X170217139Y-98358774D01*
X170157973Y-98355195D01*
X170157971Y-98355195D01*
X170148292Y-98356969D01*
X170125940Y-98359000D01*
X168757113Y-98359000D01*
X168690074Y-98339315D01*
X168644319Y-98286511D01*
X168639407Y-98274004D01*
X168632249Y-98252402D01*
X168612003Y-98191303D01*
X168611999Y-98191297D01*
X168611998Y-98191294D01*
X168522970Y-98046959D01*
X168522967Y-98046955D01*
X168403044Y-97927032D01*
X168403040Y-97927029D01*
X168258705Y-97838001D01*
X168258699Y-97837998D01*
X168258697Y-97837997D01*
X168190434Y-97815377D01*
X168097709Y-97784651D01*
X167998346Y-97774500D01*
X167451662Y-97774500D01*
X167451644Y-97774501D01*
X167352292Y-97784650D01*
X167352289Y-97784651D01*
X167191305Y-97837996D01*
X167191294Y-97838001D01*
X167046959Y-97927029D01*
X167046955Y-97927032D01*
X167037681Y-97936307D01*
X166976358Y-97969792D01*
X166906666Y-97964808D01*
X166862319Y-97936307D01*
X166853044Y-97927032D01*
X166853040Y-97927029D01*
X166708705Y-97838001D01*
X166708699Y-97837998D01*
X166708697Y-97837997D01*
X166640434Y-97815377D01*
X166547709Y-97784651D01*
X166448352Y-97774500D01*
X166448345Y-97774500D01*
X166138281Y-97774500D01*
X166071242Y-97754815D01*
X166050600Y-97738181D01*
X164427376Y-96114957D01*
X164417531Y-96102668D01*
X164417313Y-96102849D01*
X164412340Y-96096838D01*
X164363153Y-96050648D01*
X164360354Y-96047935D01*
X164340797Y-96028377D01*
X164337607Y-96025903D01*
X164328716Y-96018310D01*
X164296768Y-95988308D01*
X164296763Y-95988304D01*
X164279122Y-95978606D01*
X164262857Y-95967922D01*
X164246963Y-95955593D01*
X164246962Y-95955592D01*
X164217662Y-95942912D01*
X164206735Y-95938184D01*
X164196247Y-95933045D01*
X164157838Y-95911929D01*
X164157828Y-95911926D01*
X164138334Y-95906920D01*
X164119933Y-95900620D01*
X164101459Y-95892626D01*
X164101452Y-95892624D01*
X164058173Y-95885770D01*
X164046733Y-95883401D01*
X164004279Y-95872500D01*
X164004272Y-95872500D01*
X163984142Y-95872500D01*
X163964743Y-95870973D01*
X163944868Y-95867825D01*
X163944867Y-95867825D01*
X163901230Y-95871950D01*
X163889561Y-95872500D01*
X135582967Y-95872500D01*
X135567318Y-95870772D01*
X135567292Y-95871054D01*
X135559524Y-95870319D01*
X135492081Y-95872439D01*
X135488187Y-95872500D01*
X135460523Y-95872500D01*
X135456514Y-95873006D01*
X135444884Y-95873921D01*
X135401056Y-95875298D01*
X135381713Y-95880918D01*
X135362669Y-95884862D01*
X135359709Y-95885235D01*
X135342707Y-95887384D01*
X135342703Y-95887385D01*
X135342700Y-95887386D01*
X135301950Y-95903519D01*
X135290906Y-95907300D01*
X135248809Y-95919531D01*
X135248806Y-95919533D01*
X135231480Y-95929779D01*
X135214010Y-95938337D01*
X135195298Y-95945745D01*
X135159826Y-95971516D01*
X135150066Y-95977927D01*
X135112346Y-96000234D01*
X135098106Y-96014474D01*
X135083320Y-96027102D01*
X135067033Y-96038936D01*
X135039090Y-96072712D01*
X135031229Y-96081350D01*
X133049400Y-98063181D01*
X132988077Y-98096666D01*
X132961719Y-98099500D01*
X132905354Y-98099500D01*
X132872897Y-98106398D01*
X132720197Y-98138855D01*
X132720192Y-98138857D01*
X132547270Y-98215848D01*
X132547265Y-98215851D01*
X132397383Y-98324747D01*
X132331577Y-98348227D01*
X132263523Y-98332401D01*
X132214828Y-98282295D01*
X132200498Y-98224429D01*
X132200498Y-97941663D01*
X132200497Y-97941645D01*
X132190348Y-97842293D01*
X132190347Y-97842290D01*
X132188924Y-97837996D01*
X132137002Y-97681304D01*
X132136998Y-97681298D01*
X132136997Y-97681295D01*
X132047969Y-97536960D01*
X132047966Y-97536956D01*
X131928043Y-97417033D01*
X131928039Y-97417030D01*
X131783704Y-97328002D01*
X131783698Y-97327999D01*
X131783696Y-97327998D01*
X131747826Y-97316112D01*
X131622708Y-97274652D01*
X131523345Y-97264501D01*
X130976661Y-97264501D01*
X130976643Y-97264502D01*
X130877291Y-97274651D01*
X130877288Y-97274652D01*
X130716304Y-97327997D01*
X130716293Y-97328002D01*
X130571958Y-97417030D01*
X130571954Y-97417033D01*
X130562680Y-97426308D01*
X130501357Y-97459793D01*
X130431665Y-97454809D01*
X130387318Y-97426308D01*
X130378043Y-97417033D01*
X130378039Y-97417030D01*
X130233704Y-97328002D01*
X130233698Y-97327999D01*
X130233696Y-97327998D01*
X130197826Y-97316112D01*
X130072708Y-97274652D01*
X129973345Y-97264501D01*
X129426661Y-97264501D01*
X129426643Y-97264502D01*
X129327291Y-97274651D01*
X129327288Y-97274652D01*
X129166298Y-97327999D01*
X129124085Y-97354038D01*
X129058987Y-97372500D01*
X128082967Y-97372500D01*
X128067318Y-97370772D01*
X128067292Y-97371054D01*
X128059524Y-97370319D01*
X127992082Y-97372439D01*
X127988188Y-97372500D01*
X127960523Y-97372500D01*
X127956514Y-97373006D01*
X127944884Y-97373921D01*
X127901060Y-97375298D01*
X127901054Y-97375299D01*
X127881719Y-97380916D01*
X127862680Y-97384859D01*
X127842715Y-97387382D01*
X127842701Y-97387385D01*
X127801950Y-97403519D01*
X127790906Y-97407300D01*
X127748809Y-97419531D01*
X127748806Y-97419533D01*
X127731480Y-97429779D01*
X127714010Y-97438337D01*
X127695298Y-97445745D01*
X127659826Y-97471516D01*
X127650066Y-97477927D01*
X127612346Y-97500234D01*
X127598106Y-97514474D01*
X127583320Y-97527102D01*
X127567033Y-97538936D01*
X127539090Y-97572712D01*
X127531229Y-97581350D01*
X127242806Y-97869773D01*
X127205562Y-97895371D01*
X127047267Y-97965850D01*
X127047265Y-97965851D01*
X126894129Y-98077111D01*
X126767466Y-98217785D01*
X126672821Y-98381715D01*
X126672818Y-98381722D01*
X126614327Y-98561740D01*
X126614326Y-98561744D01*
X126594540Y-98750000D01*
X119250499Y-98750000D01*
X119250499Y-98202128D01*
X119244091Y-98142517D01*
X119242725Y-98138855D01*
X119193797Y-98007671D01*
X119193793Y-98007664D01*
X119107547Y-97892455D01*
X119107544Y-97892452D01*
X118992335Y-97806206D01*
X118992328Y-97806202D01*
X118857482Y-97755908D01*
X118857483Y-97755908D01*
X118797883Y-97749501D01*
X118797881Y-97749500D01*
X118797873Y-97749500D01*
X118797864Y-97749500D01*
X115202129Y-97749500D01*
X115202123Y-97749501D01*
X115142516Y-97755908D01*
X115007671Y-97806202D01*
X115007664Y-97806206D01*
X114892455Y-97892452D01*
X114892452Y-97892455D01*
X114806206Y-98007664D01*
X114806202Y-98007671D01*
X114755908Y-98142517D01*
X114749501Y-98202116D01*
X114749501Y-98202123D01*
X114749500Y-98202135D01*
X114749500Y-101797870D01*
X114749501Y-101797876D01*
X114755908Y-101857483D01*
X114806202Y-101992328D01*
X114806206Y-101992335D01*
X114892452Y-102107544D01*
X114892455Y-102107547D01*
X115007664Y-102193793D01*
X115007673Y-102193798D01*
X115056506Y-102212011D01*
X115112440Y-102253881D01*
X115136858Y-102319345D01*
X115122007Y-102387618D01*
X115072603Y-102437024D01*
X115006598Y-102452018D01*
X114968625Y-102450001D01*
X114968579Y-102450000D01*
X114250000Y-102450000D01*
X114250000Y-104200000D01*
X113750000Y-104200000D01*
X113750000Y-102450000D01*
X113031423Y-102450000D01*
X113031411Y-102450001D01*
X112978808Y-102452794D01*
X112749012Y-102497237D01*
X112530024Y-102579879D01*
X112328158Y-102698339D01*
X112328151Y-102698344D01*
X112149213Y-102849211D01*
X112149211Y-102849213D01*
X111998344Y-103028151D01*
X111998339Y-103028158D01*
X111879879Y-103230024D01*
X111797237Y-103449012D01*
X111752794Y-103678808D01*
X111752794Y-103678809D01*
X111750001Y-103731382D01*
X111750000Y-103731421D01*
X111750000Y-104450000D01*
X108255393Y-104450000D01*
X108173686Y-104024181D01*
X108172608Y-104017609D01*
X108082177Y-103353885D01*
X108081453Y-103347220D01*
X108040901Y-102849211D01*
X108027092Y-102679624D01*
X108026729Y-102672925D01*
X108024208Y-102579879D01*
X108008545Y-102001661D01*
X108008500Y-101998303D01*
X108008500Y-100040615D01*
X108008641Y-100036431D01*
X108008633Y-100034442D01*
X108008634Y-100034439D01*
X108008500Y-99999098D01*
X108008500Y-99963632D01*
X108008500Y-99961623D01*
X108008341Y-99957423D01*
X108008316Y-99950750D01*
X108007555Y-99750000D01*
X109000000Y-99750000D01*
X110500000Y-99750000D01*
X110500000Y-100250000D01*
X109000001Y-100250000D01*
X109000001Y-101064197D01*
X109010400Y-101196332D01*
X109065377Y-101414519D01*
X109158428Y-101619374D01*
X109158431Y-101619380D01*
X109286559Y-101804323D01*
X109286569Y-101804335D01*
X109445664Y-101963430D01*
X109445676Y-101963440D01*
X109630619Y-102091568D01*
X109630625Y-102091571D01*
X109835480Y-102184622D01*
X110053667Y-102239599D01*
X110185810Y-102249999D01*
X110749999Y-102249999D01*
X110750000Y-102249998D01*
X110750000Y-101433686D01*
X110790156Y-101459493D01*
X110928111Y-101500000D01*
X111071889Y-101500000D01*
X111209844Y-101459493D01*
X111250000Y-101433686D01*
X111250000Y-102249999D01*
X111814182Y-102249999D01*
X111814197Y-102249998D01*
X111946332Y-102239599D01*
X112164519Y-102184622D01*
X112369374Y-102091571D01*
X112369380Y-102091568D01*
X112554323Y-101963440D01*
X112554335Y-101963430D01*
X112713430Y-101804335D01*
X112713440Y-101804323D01*
X112841568Y-101619380D01*
X112841571Y-101619374D01*
X112934622Y-101414519D01*
X112989599Y-101196332D01*
X112999999Y-101064196D01*
X113000000Y-101064184D01*
X113000000Y-100250000D01*
X111500000Y-100250000D01*
X111500000Y-99750000D01*
X112999999Y-99750000D01*
X112999999Y-98935817D01*
X112999998Y-98935802D01*
X112989599Y-98803667D01*
X112934622Y-98585480D01*
X112841571Y-98380625D01*
X112841568Y-98380619D01*
X112713440Y-98195676D01*
X112713430Y-98195664D01*
X112554335Y-98036569D01*
X112554323Y-98036559D01*
X112369380Y-97908431D01*
X112369374Y-97908428D01*
X112164519Y-97815377D01*
X111946332Y-97760400D01*
X111814196Y-97750000D01*
X111250000Y-97750000D01*
X111250000Y-98566313D01*
X111209844Y-98540507D01*
X111071889Y-98500000D01*
X110928111Y-98500000D01*
X110790156Y-98540507D01*
X110750000Y-98566313D01*
X110750000Y-97750000D01*
X110185817Y-97750000D01*
X110185802Y-97750001D01*
X110053667Y-97760400D01*
X109835480Y-97815377D01*
X109630625Y-97908428D01*
X109630619Y-97908431D01*
X109445676Y-98036559D01*
X109445664Y-98036569D01*
X109286569Y-98195664D01*
X109286559Y-98195676D01*
X109158431Y-98380619D01*
X109158428Y-98380625D01*
X109065377Y-98585480D01*
X109010400Y-98803667D01*
X109000000Y-98935803D01*
X109000000Y-99750000D01*
X108007555Y-99750000D01*
X108000897Y-97994195D01*
X108000941Y-97990389D01*
X108001554Y-97967785D01*
X108019117Y-97319452D01*
X108019481Y-97312756D01*
X108022584Y-97274651D01*
X108073843Y-96645158D01*
X108074568Y-96638493D01*
X108130419Y-96228571D01*
X108164998Y-95974773D01*
X108166074Y-95968213D01*
X108292301Y-95310380D01*
X108293741Y-95303839D01*
X108322485Y-95188259D01*
X108455403Y-94653786D01*
X108457185Y-94647368D01*
X108653802Y-94007021D01*
X108655927Y-94000715D01*
X108886929Y-93371934D01*
X108889395Y-93365745D01*
X109154097Y-92750404D01*
X109156894Y-92744358D01*
X109454521Y-92144248D01*
X109457647Y-92138353D01*
X109787313Y-91555262D01*
X109790750Y-91549549D01*
X110151517Y-90985134D01*
X110155271Y-90979600D01*
X110546045Y-90435572D01*
X110550094Y-90430245D01*
X110969746Y-89908175D01*
X110974058Y-89903097D01*
X111421403Y-89404463D01*
X111425986Y-89399626D01*
X111899626Y-88925986D01*
X111904463Y-88921403D01*
X112403097Y-88474058D01*
X112408175Y-88469746D01*
X112930245Y-88050094D01*
X112935572Y-88046045D01*
X113479600Y-87655271D01*
X113485134Y-87651517D01*
X114049549Y-87290750D01*
X114055262Y-87287313D01*
X114638353Y-86957647D01*
X114644248Y-86954521D01*
X115244358Y-86656894D01*
X115250404Y-86654097D01*
X115865745Y-86389395D01*
X115871934Y-86386929D01*
X116500715Y-86155927D01*
X116507021Y-86153802D01*
X117147368Y-85957185D01*
X117153786Y-85955403D01*
X117803856Y-85793737D01*
X117810380Y-85792301D01*
X118468213Y-85666074D01*
X118474773Y-85664998D01*
X119138503Y-85574566D01*
X119145158Y-85573843D01*
X119812766Y-85519480D01*
X119819452Y-85519117D01*
X120490727Y-85500933D01*
X120494085Y-85500888D01*
X120494710Y-85500888D01*
X179424495Y-85508489D01*
G37*
%TD.AperFunction*%
%TD*%
M02*
