%TF.GenerationSoftware,KiCad,Pcbnew,7.0.10*%
%TF.CreationDate,2024-11-23T20:10:39-08:00*%
%TF.ProjectId,charging-base rev1,63686172-6769-46e6-972d-626173652072,rev?*%
%TF.SameCoordinates,Original*%
%TF.FileFunction,Legend,Top*%
%TF.FilePolarity,Positive*%
%FSLAX46Y46*%
G04 Gerber Fmt 4.6, Leading zero omitted, Abs format (unit mm)*
G04 Created by KiCad (PCBNEW 7.0.10) date 2024-11-23 20:10:39*
%MOMM*%
%LPD*%
G01*
G04 APERTURE LIST*
G04 Aperture macros list*
%AMRoundRect*
0 Rectangle with rounded corners*
0 $1 Rounding radius*
0 $2 $3 $4 $5 $6 $7 $8 $9 X,Y pos of 4 corners*
0 Add a 4 corners polygon primitive as box body*
4,1,4,$2,$3,$4,$5,$6,$7,$8,$9,$2,$3,0*
0 Add four circle primitives for the rounded corners*
1,1,$1+$1,$2,$3*
1,1,$1+$1,$4,$5*
1,1,$1+$1,$6,$7*
1,1,$1+$1,$8,$9*
0 Add four rect primitives between the rounded corners*
20,1,$1+$1,$2,$3,$4,$5,0*
20,1,$1+$1,$4,$5,$6,$7,0*
20,1,$1+$1,$6,$7,$8,$9,0*
20,1,$1+$1,$8,$9,$2,$3,0*%
G04 Aperture macros list end*
%ADD10C,0.150000*%
%ADD11C,0.120000*%
%ADD12RoundRect,0.250000X-0.312500X-0.625000X0.312500X-0.625000X0.312500X0.625000X-0.312500X0.625000X0*%
%ADD13RoundRect,0.225000X0.225000X0.250000X-0.225000X0.250000X-0.225000X-0.250000X0.225000X-0.250000X0*%
%ADD14R,1.700000X1.700000*%
%ADD15O,1.700000X1.700000*%
%ADD16R,3.500000X3.500000*%
%ADD17RoundRect,0.750000X-0.750000X-1.000000X0.750000X-1.000000X0.750000X1.000000X-0.750000X1.000000X0*%
%ADD18RoundRect,0.875000X-0.875000X-0.875000X0.875000X-0.875000X0.875000X0.875000X-0.875000X0.875000X0*%
%ADD19R,1.800000X1.800000*%
%ADD20C,1.800000*%
%ADD21RoundRect,0.225000X-0.225000X-0.250000X0.225000X-0.250000X0.225000X0.250000X-0.225000X0.250000X0*%
%ADD22R,0.500000X0.300000*%
%ADD23R,1.050000X1.750000*%
%ADD24RoundRect,0.150000X-0.512500X-0.150000X0.512500X-0.150000X0.512500X0.150000X-0.512500X0.150000X0*%
G04 APERTURE END LIST*
D10*
X130083333Y-104384819D02*
X129750000Y-103908628D01*
X129511905Y-104384819D02*
X129511905Y-103384819D01*
X129511905Y-103384819D02*
X129892857Y-103384819D01*
X129892857Y-103384819D02*
X129988095Y-103432438D01*
X129988095Y-103432438D02*
X130035714Y-103480057D01*
X130035714Y-103480057D02*
X130083333Y-103575295D01*
X130083333Y-103575295D02*
X130083333Y-103718152D01*
X130083333Y-103718152D02*
X130035714Y-103813390D01*
X130035714Y-103813390D02*
X129988095Y-103861009D01*
X129988095Y-103861009D02*
X129892857Y-103908628D01*
X129892857Y-103908628D02*
X129511905Y-103908628D01*
X130416667Y-103384819D02*
X131035714Y-103384819D01*
X131035714Y-103384819D02*
X130702381Y-103765771D01*
X130702381Y-103765771D02*
X130845238Y-103765771D01*
X130845238Y-103765771D02*
X130940476Y-103813390D01*
X130940476Y-103813390D02*
X130988095Y-103861009D01*
X130988095Y-103861009D02*
X131035714Y-103956247D01*
X131035714Y-103956247D02*
X131035714Y-104194342D01*
X131035714Y-104194342D02*
X130988095Y-104289580D01*
X130988095Y-104289580D02*
X130940476Y-104337200D01*
X130940476Y-104337200D02*
X130845238Y-104384819D01*
X130845238Y-104384819D02*
X130559524Y-104384819D01*
X130559524Y-104384819D02*
X130464286Y-104337200D01*
X130464286Y-104337200D02*
X130416667Y-104289580D01*
X166808333Y-103384819D02*
X166475000Y-102908628D01*
X166236905Y-103384819D02*
X166236905Y-102384819D01*
X166236905Y-102384819D02*
X166617857Y-102384819D01*
X166617857Y-102384819D02*
X166713095Y-102432438D01*
X166713095Y-102432438D02*
X166760714Y-102480057D01*
X166760714Y-102480057D02*
X166808333Y-102575295D01*
X166808333Y-102575295D02*
X166808333Y-102718152D01*
X166808333Y-102718152D02*
X166760714Y-102813390D01*
X166760714Y-102813390D02*
X166713095Y-102861009D01*
X166713095Y-102861009D02*
X166617857Y-102908628D01*
X166617857Y-102908628D02*
X166236905Y-102908628D01*
X167665476Y-102718152D02*
X167665476Y-103384819D01*
X167427381Y-102337200D02*
X167189286Y-103051485D01*
X167189286Y-103051485D02*
X167808333Y-103051485D01*
X145834819Y-106333333D02*
X146549104Y-106333333D01*
X146549104Y-106333333D02*
X146691961Y-106380952D01*
X146691961Y-106380952D02*
X146787200Y-106476190D01*
X146787200Y-106476190D02*
X146834819Y-106619047D01*
X146834819Y-106619047D02*
X146834819Y-106714285D01*
X145930057Y-105904761D02*
X145882438Y-105857142D01*
X145882438Y-105857142D02*
X145834819Y-105761904D01*
X145834819Y-105761904D02*
X145834819Y-105523809D01*
X145834819Y-105523809D02*
X145882438Y-105428571D01*
X145882438Y-105428571D02*
X145930057Y-105380952D01*
X145930057Y-105380952D02*
X146025295Y-105333333D01*
X146025295Y-105333333D02*
X146120533Y-105333333D01*
X146120533Y-105333333D02*
X146263390Y-105380952D01*
X146263390Y-105380952D02*
X146834819Y-105952380D01*
X146834819Y-105952380D02*
X146834819Y-105333333D01*
X130333333Y-97254819D02*
X130000000Y-96778628D01*
X129761905Y-97254819D02*
X129761905Y-96254819D01*
X129761905Y-96254819D02*
X130142857Y-96254819D01*
X130142857Y-96254819D02*
X130238095Y-96302438D01*
X130238095Y-96302438D02*
X130285714Y-96350057D01*
X130285714Y-96350057D02*
X130333333Y-96445295D01*
X130333333Y-96445295D02*
X130333333Y-96588152D01*
X130333333Y-96588152D02*
X130285714Y-96683390D01*
X130285714Y-96683390D02*
X130238095Y-96731009D01*
X130238095Y-96731009D02*
X130142857Y-96778628D01*
X130142857Y-96778628D02*
X129761905Y-96778628D01*
X130714286Y-96350057D02*
X130761905Y-96302438D01*
X130761905Y-96302438D02*
X130857143Y-96254819D01*
X130857143Y-96254819D02*
X131095238Y-96254819D01*
X131095238Y-96254819D02*
X131190476Y-96302438D01*
X131190476Y-96302438D02*
X131238095Y-96350057D01*
X131238095Y-96350057D02*
X131285714Y-96445295D01*
X131285714Y-96445295D02*
X131285714Y-96540533D01*
X131285714Y-96540533D02*
X131238095Y-96683390D01*
X131238095Y-96683390D02*
X130666667Y-97254819D01*
X130666667Y-97254819D02*
X131285714Y-97254819D01*
X108216666Y-105204819D02*
X108216666Y-105919104D01*
X108216666Y-105919104D02*
X108169047Y-106061961D01*
X108169047Y-106061961D02*
X108073809Y-106157200D01*
X108073809Y-106157200D02*
X107930952Y-106204819D01*
X107930952Y-106204819D02*
X107835714Y-106204819D01*
X109216666Y-106204819D02*
X108645238Y-106204819D01*
X108930952Y-106204819D02*
X108930952Y-105204819D01*
X108930952Y-105204819D02*
X108835714Y-105347676D01*
X108835714Y-105347676D02*
X108740476Y-105442914D01*
X108740476Y-105442914D02*
X108645238Y-105490533D01*
X182744819Y-100743093D02*
X181744819Y-100743093D01*
X181744819Y-100743093D02*
X181744819Y-100504998D01*
X181744819Y-100504998D02*
X181792438Y-100362141D01*
X181792438Y-100362141D02*
X181887676Y-100266903D01*
X181887676Y-100266903D02*
X181982914Y-100219284D01*
X181982914Y-100219284D02*
X182173390Y-100171665D01*
X182173390Y-100171665D02*
X182316247Y-100171665D01*
X182316247Y-100171665D02*
X182506723Y-100219284D01*
X182506723Y-100219284D02*
X182601961Y-100266903D01*
X182601961Y-100266903D02*
X182697200Y-100362141D01*
X182697200Y-100362141D02*
X182744819Y-100504998D01*
X182744819Y-100504998D02*
X182744819Y-100743093D01*
X182744819Y-99219284D02*
X182744819Y-99790712D01*
X182744819Y-99504998D02*
X181744819Y-99504998D01*
X181744819Y-99504998D02*
X181887676Y-99600236D01*
X181887676Y-99600236D02*
X181982914Y-99695474D01*
X181982914Y-99695474D02*
X182030533Y-99790712D01*
X179833333Y-96884819D02*
X179500000Y-96408628D01*
X179261905Y-96884819D02*
X179261905Y-95884819D01*
X179261905Y-95884819D02*
X179642857Y-95884819D01*
X179642857Y-95884819D02*
X179738095Y-95932438D01*
X179738095Y-95932438D02*
X179785714Y-95980057D01*
X179785714Y-95980057D02*
X179833333Y-96075295D01*
X179833333Y-96075295D02*
X179833333Y-96218152D01*
X179833333Y-96218152D02*
X179785714Y-96313390D01*
X179785714Y-96313390D02*
X179738095Y-96361009D01*
X179738095Y-96361009D02*
X179642857Y-96408628D01*
X179642857Y-96408628D02*
X179261905Y-96408628D01*
X180690476Y-95884819D02*
X180500000Y-95884819D01*
X180500000Y-95884819D02*
X180404762Y-95932438D01*
X180404762Y-95932438D02*
X180357143Y-95980057D01*
X180357143Y-95980057D02*
X180261905Y-96122914D01*
X180261905Y-96122914D02*
X180214286Y-96313390D01*
X180214286Y-96313390D02*
X180214286Y-96694342D01*
X180214286Y-96694342D02*
X180261905Y-96789580D01*
X180261905Y-96789580D02*
X180309524Y-96837200D01*
X180309524Y-96837200D02*
X180404762Y-96884819D01*
X180404762Y-96884819D02*
X180595238Y-96884819D01*
X180595238Y-96884819D02*
X180690476Y-96837200D01*
X180690476Y-96837200D02*
X180738095Y-96789580D01*
X180738095Y-96789580D02*
X180785714Y-96694342D01*
X180785714Y-96694342D02*
X180785714Y-96456247D01*
X180785714Y-96456247D02*
X180738095Y-96361009D01*
X180738095Y-96361009D02*
X180690476Y-96313390D01*
X180690476Y-96313390D02*
X180595238Y-96265771D01*
X180595238Y-96265771D02*
X180404762Y-96265771D01*
X180404762Y-96265771D02*
X180309524Y-96313390D01*
X180309524Y-96313390D02*
X180261905Y-96361009D01*
X180261905Y-96361009D02*
X180214286Y-96456247D01*
X130308333Y-102634819D02*
X129975000Y-102158628D01*
X129736905Y-102634819D02*
X129736905Y-101634819D01*
X129736905Y-101634819D02*
X130117857Y-101634819D01*
X130117857Y-101634819D02*
X130213095Y-101682438D01*
X130213095Y-101682438D02*
X130260714Y-101730057D01*
X130260714Y-101730057D02*
X130308333Y-101825295D01*
X130308333Y-101825295D02*
X130308333Y-101968152D01*
X130308333Y-101968152D02*
X130260714Y-102063390D01*
X130260714Y-102063390D02*
X130213095Y-102111009D01*
X130213095Y-102111009D02*
X130117857Y-102158628D01*
X130117857Y-102158628D02*
X129736905Y-102158628D01*
X131260714Y-102634819D02*
X130689286Y-102634819D01*
X130975000Y-102634819D02*
X130975000Y-101634819D01*
X130975000Y-101634819D02*
X130879762Y-101777676D01*
X130879762Y-101777676D02*
X130784524Y-101872914D01*
X130784524Y-101872914D02*
X130689286Y-101920533D01*
X166783333Y-97774819D02*
X166450000Y-97298628D01*
X166211905Y-97774819D02*
X166211905Y-96774819D01*
X166211905Y-96774819D02*
X166592857Y-96774819D01*
X166592857Y-96774819D02*
X166688095Y-96822438D01*
X166688095Y-96822438D02*
X166735714Y-96870057D01*
X166735714Y-96870057D02*
X166783333Y-96965295D01*
X166783333Y-96965295D02*
X166783333Y-97108152D01*
X166783333Y-97108152D02*
X166735714Y-97203390D01*
X166735714Y-97203390D02*
X166688095Y-97251009D01*
X166688095Y-97251009D02*
X166592857Y-97298628D01*
X166592857Y-97298628D02*
X166211905Y-97298628D01*
X167688095Y-96774819D02*
X167211905Y-96774819D01*
X167211905Y-96774819D02*
X167164286Y-97251009D01*
X167164286Y-97251009D02*
X167211905Y-97203390D01*
X167211905Y-97203390D02*
X167307143Y-97155771D01*
X167307143Y-97155771D02*
X167545238Y-97155771D01*
X167545238Y-97155771D02*
X167640476Y-97203390D01*
X167640476Y-97203390D02*
X167688095Y-97251009D01*
X167688095Y-97251009D02*
X167735714Y-97346247D01*
X167735714Y-97346247D02*
X167735714Y-97584342D01*
X167735714Y-97584342D02*
X167688095Y-97679580D01*
X167688095Y-97679580D02*
X167640476Y-97727200D01*
X167640476Y-97727200D02*
X167545238Y-97774819D01*
X167545238Y-97774819D02*
X167307143Y-97774819D01*
X167307143Y-97774819D02*
X167211905Y-97727200D01*
X167211905Y-97727200D02*
X167164286Y-97679580D01*
X134738095Y-97392319D02*
X134738095Y-98201842D01*
X134738095Y-98201842D02*
X134785714Y-98297080D01*
X134785714Y-98297080D02*
X134833333Y-98344700D01*
X134833333Y-98344700D02*
X134928571Y-98392319D01*
X134928571Y-98392319D02*
X135119047Y-98392319D01*
X135119047Y-98392319D02*
X135214285Y-98344700D01*
X135214285Y-98344700D02*
X135261904Y-98297080D01*
X135261904Y-98297080D02*
X135309523Y-98201842D01*
X135309523Y-98201842D02*
X135309523Y-97392319D01*
X136309523Y-98392319D02*
X135738095Y-98392319D01*
X136023809Y-98392319D02*
X136023809Y-97392319D01*
X136023809Y-97392319D02*
X135928571Y-97535176D01*
X135928571Y-97535176D02*
X135833333Y-97630414D01*
X135833333Y-97630414D02*
X135738095Y-97678033D01*
X174154761Y-98150057D02*
X174059523Y-98102438D01*
X174059523Y-98102438D02*
X173964285Y-98007200D01*
X173964285Y-98007200D02*
X173821428Y-97864342D01*
X173821428Y-97864342D02*
X173726190Y-97816723D01*
X173726190Y-97816723D02*
X173630952Y-97816723D01*
X173678571Y-98054819D02*
X173583333Y-98007200D01*
X173583333Y-98007200D02*
X173488095Y-97911961D01*
X173488095Y-97911961D02*
X173440476Y-97721485D01*
X173440476Y-97721485D02*
X173440476Y-97388152D01*
X173440476Y-97388152D02*
X173488095Y-97197676D01*
X173488095Y-97197676D02*
X173583333Y-97102438D01*
X173583333Y-97102438D02*
X173678571Y-97054819D01*
X173678571Y-97054819D02*
X173869047Y-97054819D01*
X173869047Y-97054819D02*
X173964285Y-97102438D01*
X173964285Y-97102438D02*
X174059523Y-97197676D01*
X174059523Y-97197676D02*
X174107142Y-97388152D01*
X174107142Y-97388152D02*
X174107142Y-97721485D01*
X174107142Y-97721485D02*
X174059523Y-97911961D01*
X174059523Y-97911961D02*
X173964285Y-98007200D01*
X173964285Y-98007200D02*
X173869047Y-98054819D01*
X173869047Y-98054819D02*
X173678571Y-98054819D01*
X175059523Y-98054819D02*
X174488095Y-98054819D01*
X174773809Y-98054819D02*
X174773809Y-97054819D01*
X174773809Y-97054819D02*
X174678571Y-97197676D01*
X174678571Y-97197676D02*
X174583333Y-97292914D01*
X174583333Y-97292914D02*
X174488095Y-97340533D01*
D11*
%TO.C,R3*%
X129522936Y-104840000D02*
X130977064Y-104840000D01*
X129522936Y-106660000D02*
X130977064Y-106660000D01*
%TO.C,R4*%
X167115580Y-102010000D02*
X166834420Y-102010000D01*
X167115580Y-100990000D02*
X166834420Y-100990000D01*
%TO.C,J2*%
X147380000Y-107330000D02*
X147380000Y-106000000D01*
X148710000Y-107330000D02*
X147380000Y-107330000D01*
X149980000Y-107330000D02*
X152580000Y-107330000D01*
X149980000Y-107330000D02*
X149980000Y-104670000D01*
X152580000Y-107330000D02*
X152580000Y-104670000D01*
X149980000Y-104670000D02*
X152580000Y-104670000D01*
%TO.C,R2*%
X130615579Y-98750001D02*
X130334419Y-98750001D01*
X130615579Y-97730001D02*
X130334419Y-97730001D01*
%TO.C,J1*%
X103200000Y-95400000D02*
X117900000Y-95400000D01*
X103200000Y-104600000D02*
X103200000Y-95400000D01*
X112000000Y-104600000D02*
X103200000Y-104600000D01*
X117050000Y-95200000D02*
X118100000Y-95200000D01*
X117900000Y-95400000D02*
X117900000Y-98000000D01*
X117900000Y-101900000D02*
X117900000Y-104600000D01*
X117900000Y-104600000D02*
X116000000Y-104600000D01*
X118100000Y-96250000D02*
X118100000Y-95200000D01*
%TO.C,D1*%
X184705000Y-102564999D02*
X187795000Y-102564999D01*
X186250462Y-97015000D02*
G75*
G03*
X184705170Y-102564998I-462J-2989999D01*
G01*
X187794830Y-102564999D02*
G75*
G03*
X186249538Y-97014999I-1544830J2560000D01*
G01*
X188750000Y-100004999D02*
G75*
G03*
X183750000Y-100004999I-2500000J0D01*
G01*
X183750000Y-100004999D02*
G75*
G03*
X188750000Y-100004999I2500000J0D01*
G01*
%TO.C,R6*%
X180140580Y-95510000D02*
X179859420Y-95510000D01*
X180140580Y-94490000D02*
X179859420Y-94490000D01*
%TO.C,R1*%
X130615580Y-101260000D02*
X130334420Y-101260000D01*
X130615580Y-100240000D02*
X130334420Y-100240000D01*
%TO.C,R5*%
X166809420Y-98240000D02*
X167090580Y-98240000D01*
X166809420Y-99260000D02*
X167090580Y-99260000D01*
%TO.C,U1*%
X134500000Y-101037500D02*
X136500000Y-101037500D01*
X135500000Y-98837500D02*
X136500000Y-98837500D01*
%TO.C,Q1*%
X174250000Y-98440000D02*
X172450000Y-98440000D01*
X174250000Y-98440000D02*
X175050000Y-98440000D01*
X174250000Y-101560000D02*
X173450000Y-101560000D01*
X174250000Y-101560000D02*
X175050000Y-101560000D01*
%TD*%
%LPC*%
D12*
%TO.C,R3*%
X128787500Y-105750000D03*
X131712500Y-105750000D03*
%TD*%
D13*
%TO.C,R4*%
X167750000Y-101500000D03*
X166200000Y-101500000D03*
%TD*%
D14*
%TO.C,J2*%
X148710000Y-106000000D03*
D15*
X151250000Y-106000000D03*
%TD*%
D13*
%TO.C,R2*%
X131249999Y-98240001D03*
X129699999Y-98240001D03*
%TD*%
D16*
%TO.C,J1*%
X117000000Y-100000000D03*
D17*
X111000000Y-100000000D03*
D18*
X114000000Y-104700000D03*
%TD*%
D19*
%TO.C,D1*%
X186250000Y-101274999D03*
D20*
X186250000Y-98734999D03*
%TD*%
D13*
%TO.C,R6*%
X180775000Y-95000000D03*
X179225000Y-95000000D03*
%TD*%
%TO.C,R1*%
X131250000Y-100750000D03*
X129700000Y-100750000D03*
%TD*%
D21*
%TO.C,R5*%
X166175000Y-98750000D03*
X167725000Y-98750000D03*
%TD*%
D22*
%TO.C,U1*%
X134600000Y-99187500D03*
X134600000Y-99687500D03*
X134600000Y-100187500D03*
X134600000Y-100687500D03*
X136400000Y-100687500D03*
X136400000Y-100187500D03*
X136400000Y-99687500D03*
X136400000Y-99187500D03*
D23*
X135500000Y-99937500D03*
%TD*%
D24*
%TO.C,Q1*%
X175387500Y-100000000D03*
X173112500Y-99050000D03*
X173112500Y-100950000D03*
%TD*%
%LPD*%
M02*
